<svg width="3852" height="4295" viewBox="0 0 3852 4295" fill="none" xmlns="http://www.w3.org/2000/svg">
<rect width="3852" height="4295" fill="#010103"/>
<g clip-path="url(#clip0_40000053_3)">
<rect width="3852" height="2041" fill="url(#paint0_radial_40000053_3)"/>
<g opacity="0.15">
<g clip-path="url(#clip1_40000053_3)">
<g clip-path="url(#clip2_40000053_3)">
<path d="M1332.25 728.199C1332.25 723.644 1335.95 719.954 1340.51 719.954C1345.06 719.954 1348.76 723.644 1348.76 728.199C1348.76 732.755 1345.06 736.448 1340.51 736.448C1335.95 736.448 1332.25 732.755 1332.25 728.199Z" fill="white" fill-opacity="0.2"/>
<path d="M707.949 501.391C707.949 496.839 711.647 493.146 716.204 493.146C720.761 493.146 724.459 496.839 724.459 501.391C724.459 505.946 720.761 509.64 716.204 509.64C711.647 509.64 707.949 505.946 707.949 501.391Z" fill="white" fill-opacity="0.2"/>
<path d="M2126.81 323.181C2126.81 318.625 2130.5 314.936 2135.07 314.936C2139.62 314.936 2143.32 318.625 2143.32 323.181C2143.32 327.736 2139.62 331.426 2135.07 331.426C2130.5 331.426 2126.81 327.736 2126.81 323.181Z" fill="white" fill-opacity="0.2"/>
<path d="M1121.44 136.876C1121.44 132.324 1125.14 128.63 1129.7 128.63C1134.26 128.63 1137.95 132.324 1137.95 136.876C1137.95 141.431 1134.26 145.124 1129.7 145.124C1125.14 145.124 1121.44 141.431 1121.44 136.876Z" fill="white" fill-opacity="0.2"/>
<path d="M1048.47 1319.53C1048.47 1314.97 1052.17 1311.28 1056.73 1311.28C1061.29 1311.28 1064.98 1314.97 1064.98 1319.53C1064.98 1324.08 1061.29 1327.77 1056.73 1327.77C1052.17 1327.77 1048.47 1324.08 1048.47 1319.53Z" fill="white" fill-opacity="0.2"/>
<path d="M570.12 663.397C570.12 658.842 573.814 655.152 578.375 655.152C582.932 655.152 586.626 658.842 586.626 663.397C586.626 667.953 582.932 671.646 578.375 671.646C573.814 671.646 570.12 667.953 570.12 663.397Z" fill="white" fill-opacity="0.2"/>
<path d="M1786.28 436.589C1786.28 432.037 1789.98 428.344 1794.53 428.344C1799.09 428.344 1802.79 432.037 1802.79 436.589C1802.79 441.144 1799.09 444.838 1794.53 444.838C1789.98 444.838 1786.28 441.144 1786.28 436.589Z" fill="white" fill-opacity="0.2"/>
<path d="M2045.74 1392.43C2045.74 1387.87 2049.43 1384.18 2053.99 1384.18C2058.55 1384.18 2062.25 1387.87 2062.25 1392.43C2062.25 1396.99 2058.55 1400.68 2053.99 1400.68C2049.43 1400.68 2045.74 1396.99 2045.74 1392.43Z" fill="white" fill-opacity="0.2"/>
<path d="M1340.35 1173.72C1340.35 1169.17 1344.05 1165.48 1348.61 1165.48C1353.17 1165.48 1356.86 1169.17 1356.86 1173.72C1356.86 1178.28 1353.17 1181.97 1348.61 1181.97C1344.05 1181.97 1340.35 1178.28 1340.35 1173.72Z" fill="white" fill-opacity="0.2"/>
<path d="M1607.91 55.8701C1607.91 51.3147 1611.61 47.625 1616.17 47.625C1620.73 47.625 1624.42 51.3147 1624.42 55.8701C1624.42 60.4255 1620.73 64.1191 1616.17 64.1191C1611.61 64.1191 1607.91 60.4255 1607.91 55.8701Z" fill="white" fill-opacity="0.2"/>
<path d="M3107.85 128.774C3107.85 124.223 3111.55 120.529 3116.11 120.529C3120.67 120.529 3124.36 124.223 3124.36 128.774C3124.36 133.33 3120.67 137.023 3116.11 137.023C3111.55 137.023 3107.85 133.33 3107.85 128.774Z" fill="white" fill-opacity="0.2"/>
<path d="M2524.09 736.3C2524.09 731.744 2527.79 728.055 2532.35 728.055C2536.91 728.055 2540.6 731.744 2540.6 736.3C2540.6 740.855 2536.91 744.545 2532.35 744.545C2527.79 744.545 2524.09 740.855 2524.09 736.3Z" fill="white" fill-opacity="0.2"/>
<path d="M1502.51 1036.01C1502.51 1031.46 1506.21 1027.77 1510.77 1027.77C1515.33 1027.77 1519.02 1031.46 1519.02 1036.01C1519.02 1040.57 1515.33 1044.26 1510.77 1044.26C1506.21 1044.26 1502.51 1040.57 1502.51 1036.01Z" fill="white" fill-opacity="0.2"/>
<path d="M26.8979 185.476C26.8979 180.921 30.592 177.231 35.1528 177.231C39.7097 177.231 43.4076 180.921 43.4076 185.476C43.4076 190.031 39.7097 193.725 35.1528 193.725C30.592 193.725 26.8979 190.031 26.8979 185.476Z" fill="white" fill-opacity="0.2"/>
<path d="M618.765 47.77C618.765 43.2185 622.463 39.5249 627.02 39.5249C631.58 39.5249 635.274 43.2185 635.274 47.77C635.274 52.3254 631.58 56.019 627.02 56.019C622.463 56.019 618.765 52.3254 618.765 47.77Z" fill="white" fill-opacity="0.2"/>
<path d="M2597.05 177.377C2597.05 172.826 2600.75 169.132 2605.3 169.132C2609.86 169.132 2613.56 172.826 2613.56 177.377C2613.56 181.933 2609.86 185.626 2605.3 185.626C2600.75 185.626 2597.05 181.933 2597.05 177.377Z" fill="white" fill-opacity="0.2"/>
<path d="M2264.63 39.669C2264.63 35.1136 2268.33 31.4238 2272.88 31.4238C2277.45 31.4238 2281.14 35.1136 2281.14 39.669C2281.14 44.2244 2277.45 47.9141 2272.88 47.9141C2268.33 47.9141 2264.63 44.2244 2264.63 39.669Z" fill="white" fill-opacity="0.2"/>
<path d="M1664.67 874.008C1664.67 869.452 1668.36 865.763 1672.92 865.763C1677.48 865.763 1681.17 869.452 1681.17 874.008C1681.17 878.563 1677.48 882.257 1672.92 882.257C1668.36 882.257 1664.67 878.563 1664.67 874.008Z" fill="white" fill-opacity="0.2"/>
<path d="M1129.55 379.886C1129.55 375.33 1133.24 371.641 1137.8 371.641C1142.36 371.641 1146.06 375.33 1146.06 379.886C1146.06 384.441 1142.36 388.135 1137.8 388.135C1133.24 388.135 1129.55 384.441 1129.55 379.886Z" fill="white" fill-opacity="0.2"/>
<path d="M1348.46 31.5693C1348.46 27.0139 1352.16 23.3242 1356.71 23.3242C1361.27 23.3242 1364.97 27.0139 1364.97 31.5693C1364.97 36.1247 1361.27 39.8183 1356.71 39.8183C1352.16 39.8183 1348.46 36.1247 1348.46 31.5693Z" fill="white" fill-opacity="0.2"/>
<path d="M2199.77 622.895C2199.77 618.339 2203.47 614.649 2208.03 614.649C2212.58 614.649 2216.28 618.339 2216.28 622.895C2216.28 627.45 2212.58 631.144 2208.03 631.144C2203.47 631.144 2199.77 627.45 2199.77 622.895Z" fill="white" fill-opacity="0.2"/>
<path d="M1916.01 1384.33C1916.01 1379.77 1919.7 1376.08 1924.26 1376.08C1928.82 1376.08 1932.51 1379.77 1932.51 1384.33C1932.51 1388.88 1928.82 1392.57 1924.26 1392.57C1919.7 1392.57 1916.01 1388.88 1916.01 1384.33Z" fill="white" fill-opacity="0.2"/>
<path d="M769.975 694.231C769.975 691.196 772.44 688.733 775.479 688.733C778.518 688.733 780.98 691.196 780.98 694.231C780.98 697.267 778.518 699.729 775.479 699.729C772.44 699.729 769.975 697.267 769.975 694.231Z" fill="white"/>
<path d="M139.253 465.086C139.253 462.05 141.718 459.588 144.757 459.588C147.797 459.588 150.258 462.05 150.258 465.086C150.258 468.122 147.797 470.584 144.757 470.584C141.718 470.584 139.253 468.122 139.253 465.086Z" fill="white"/>
<path d="M1572.69 285.048C1572.69 282.012 1575.16 279.55 1578.2 279.55C1581.24 279.55 1583.7 282.012 1583.7 285.048C1583.7 288.083 1581.24 290.546 1578.2 290.546C1575.16 290.546 1572.69 288.083 1572.69 285.048Z" fill="white"/>
<path d="M556.999 96.8223C556.999 93.7866 559.464 91.3242 562.504 91.3242C565.543 91.3242 568.004 93.7866 568.004 96.8223C568.004 99.8579 565.543 102.32 562.504 102.32C559.464 102.32 556.999 99.8579 556.999 96.8223Z" fill="white"/>
<path d="M483.276 1291.63C483.276 1288.6 485.742 1286.13 488.781 1286.13C491.82 1286.13 494.282 1288.6 494.282 1291.63C494.282 1294.67 491.82 1297.13 488.781 1297.13C485.742 1297.13 483.276 1294.67 483.276 1291.63Z" fill="white"/>
<path d="M0.00195312 628.754C0.00195312 625.718 2.46723 623.256 5.50646 623.256C8.54569 623.256 11.0071 625.718 11.0071 628.754C11.0071 631.79 8.54569 634.252 5.50646 634.252C2.46723 634.252 0.00195312 631.79 0.00195312 628.754Z" fill="white"/>
<path d="M1228.68 399.617C1228.68 396.582 1231.14 394.119 1234.18 394.119C1237.22 394.119 1239.68 396.582 1239.68 399.617C1239.68 402.653 1237.22 405.115 1234.18 405.115C1231.14 405.115 1228.68 402.653 1228.68 399.617Z" fill="white"/>
<path d="M1490.79 1365.28C1490.79 1362.25 1493.25 1359.79 1496.29 1359.79C1499.33 1359.79 1501.79 1362.25 1501.79 1365.28C1501.79 1368.32 1499.33 1370.78 1496.29 1370.78C1493.25 1370.78 1490.79 1368.32 1490.79 1365.28Z" fill="white"/>
<path d="M778.158 1144.33C778.158 1141.29 780.623 1138.83 783.663 1138.83C786.702 1138.83 789.163 1141.29 789.163 1144.33C789.163 1147.36 786.702 1149.83 783.663 1149.83C780.623 1149.83 778.158 1147.36 778.158 1144.33Z" fill="white"/>
<path d="M1048.47 14.9848C1048.47 11.9492 1050.93 9.48682 1053.97 9.48682C1057.01 9.48682 1059.47 11.9492 1059.47 14.9848C1059.47 18.0205 1057.01 20.4829 1053.97 20.4829C1050.93 20.4829 1048.47 18.0205 1048.47 14.9848Z" fill="white"/>
<path d="M3137.53 48.4717C3137.53 45.436 3140 42.9736 3143.04 42.9736C3146.08 42.9736 3148.54 45.436 3148.54 48.4717C3148.54 51.5073 3146.08 53.9697 3143.04 53.9697C3140 53.9697 3137.53 51.5073 3137.53 48.4717Z" fill="white"/>
<path d="M2547.77 662.24C2547.77 659.205 2550.23 656.742 2553.27 656.742C2556.31 656.742 2558.77 659.205 2558.77 662.24C2558.77 665.276 2556.31 667.738 2553.27 667.738C2550.23 667.738 2547.77 665.276 2547.77 662.24Z" fill="white"/>
<path d="M1515.7 965.042C1515.7 962.006 1518.16 959.544 1521.2 959.544C1524.24 959.544 1526.7 962.006 1526.7 965.042C1526.7 968.078 1524.24 970.54 1521.2 970.54C1518.16 970.54 1515.7 968.078 1515.7 965.042Z" fill="white"/>
<path d="M24.9092 105.756C24.9092 102.721 27.3745 100.258 30.4137 100.258C33.4529 100.258 35.9143 102.721 35.9143 105.756C35.9143 108.792 33.4529 111.254 30.4137 111.254C27.3745 111.254 24.9092 108.792 24.9092 105.756Z" fill="white"/>
<path d="M2621.49 97.5766C2621.49 94.541 2623.96 92.0786 2627 92.0786C2630.04 92.0786 2632.5 94.541 2632.5 97.5766C2632.5 100.612 2630.04 103.075 2627 103.075C2623.96 103.075 2621.49 100.612 2621.49 97.5766Z" fill="white"/>
<path d="M1679.51 801.369C1679.51 798.333 1681.98 795.871 1685.02 795.871C1688.06 795.871 1690.52 798.333 1690.52 801.369C1690.52 804.405 1688.06 806.867 1685.02 806.867C1681.98 806.867 1679.51 804.405 1679.51 801.369Z" fill="white"/>
<path d="M1138.9 302.162C1138.9 299.126 1141.37 296.664 1144.41 296.664C1147.45 296.664 1149.91 299.126 1149.91 302.162C1149.91 305.198 1147.45 307.66 1144.41 307.66C1141.37 307.66 1138.9 305.198 1138.9 302.162Z" fill="white"/>
<path d="M2220.12 547.671C2220.12 544.635 2222.59 542.173 2225.63 542.173C2228.67 542.173 2231.13 544.635 2231.13 547.671C2231.13 550.707 2228.67 553.169 2225.63 553.169C2222.59 553.169 2220.12 550.707 2220.12 547.671Z" fill="white"/>
<path d="M1933.44 1316.93C1933.44 1313.9 1935.91 1311.44 1938.95 1311.44C1941.99 1311.44 1944.45 1313.9 1944.45 1316.93C1944.45 1319.97 1941.99 1322.43 1938.95 1322.43C1935.91 1322.43 1933.44 1319.97 1933.44 1316.93Z" fill="white"/>
<path d="M1362.1 1363.2C1362.1 1360.17 1364.57 1357.7 1367.61 1357.7C1370.65 1357.7 1373.11 1360.17 1373.11 1363.2C1373.11 1366.24 1370.65 1368.7 1367.61 1368.7C1364.57 1368.7 1362.1 1366.24 1362.1 1363.2Z" fill="white" fill-opacity="0.4"/>
<path d="M737.811 1136.39C737.811 1133.36 740.276 1130.89 743.315 1130.89C746.354 1130.89 748.816 1133.36 748.816 1136.39C748.816 1139.43 746.354 1141.89 743.315 1141.89C740.276 1141.89 737.811 1139.43 737.811 1136.39Z" fill="white" fill-opacity="0.4"/>
<path d="M2156.66 958.177C2156.66 955.141 2159.13 952.679 2162.17 952.679C2165.21 952.679 2167.67 955.141 2167.67 958.177C2167.67 961.212 2165.21 963.675 2162.17 963.675C2159.13 963.675 2156.66 961.212 2156.66 958.177Z" fill="white" fill-opacity="0.4"/>
<path d="M1151.3 771.875C1151.3 768.839 1153.77 766.377 1156.81 766.377C1159.85 766.377 1162.31 768.839 1162.31 771.875C1162.31 774.911 1159.85 777.373 1156.81 777.373C1153.77 777.373 1151.3 774.911 1151.3 771.875Z" fill="white" fill-opacity="0.4"/>
<path d="M599.974 1298.4C599.974 1295.36 602.439 1292.9 605.478 1292.9C608.517 1292.9 610.979 1295.36 610.979 1298.4C610.979 1301.43 608.517 1303.9 605.478 1303.9C602.439 1303.9 599.974 1301.43 599.974 1298.4Z" fill="white" fill-opacity="0.4"/>
<path d="M1816.14 1071.59C1816.14 1068.56 1818.61 1066.1 1821.65 1066.1C1824.69 1066.1 1827.15 1068.56 1827.15 1071.59C1827.15 1074.63 1824.69 1077.09 1821.65 1077.09C1818.61 1077.09 1816.14 1074.63 1816.14 1071.59Z" fill="white" fill-opacity="0.4"/>
<path d="M1637.77 690.873C1637.77 687.837 1640.24 685.375 1643.28 685.375C1646.31 685.375 1648.78 687.837 1648.78 690.873C1648.78 693.909 1646.31 696.371 1643.28 696.371C1640.24 696.371 1637.77 693.909 1637.77 690.873Z" fill="white" fill-opacity="0.4"/>
<path d="M3137.7 763.769C3137.7 760.733 3140.17 758.271 3143.21 758.271C3146.25 758.271 3148.71 760.733 3148.71 763.769C3148.71 766.804 3146.25 769.267 3143.21 769.267C3140.17 769.267 3137.7 766.804 3137.7 763.769Z" fill="white" fill-opacity="0.4"/>
<path d="M2553.95 1371.29C2553.95 1368.26 2556.41 1365.8 2559.45 1365.8C2562.49 1365.8 2564.95 1368.26 2564.95 1371.29C2564.95 1374.33 2562.49 1376.79 2559.45 1376.79C2556.41 1376.79 2553.95 1374.33 2553.95 1371.29Z" fill="white" fill-opacity="0.4"/>
<path d="M56.752 820.476C56.752 817.44 59.2172 814.978 62.2565 814.978C65.2957 814.978 67.7571 817.44 67.7571 820.476C67.7571 823.511 65.2957 825.974 62.2565 825.974C59.2172 825.974 56.752 823.511 56.752 820.476Z" fill="white" fill-opacity="0.4"/>
<path d="M648.626 682.771C648.626 679.736 651.091 677.273 654.13 677.273C657.17 677.273 659.631 679.736 659.631 682.771C659.631 685.807 657.17 688.27 654.13 688.27C651.091 688.27 648.626 685.807 648.626 682.771Z" fill="white" fill-opacity="0.4"/>
<path d="M0.00195312 1403.7C0.00195312 1400.67 2.46723 1398.2 5.50646 1398.2C8.54569 1398.2 11.0071 1400.67 11.0071 1403.7C11.0071 1406.74 8.54569 1409.2 5.50646 1409.2C2.46723 1409.2 0.00195312 1406.74 0.00195312 1403.7Z" fill="white" fill-opacity="0.4"/>
<path d="M2626.91 812.379C2626.91 809.343 2629.38 806.881 2632.42 806.881C2635.46 806.881 2637.92 809.343 2637.92 812.379C2637.92 815.415 2635.46 817.877 2632.42 817.877C2629.38 817.877 2626.91 815.415 2626.91 812.379Z" fill="white" fill-opacity="0.4"/>
<path d="M2294.5 674.671C2294.5 671.635 2296.96 669.173 2300 669.173C2303.04 669.173 2305.5 671.635 2305.5 674.671C2305.5 677.707 2303.04 680.169 2300 680.169C2296.96 680.169 2294.5 677.707 2294.5 674.671Z" fill="white" fill-opacity="0.4"/>
<path d="M1159.4 1014.89C1159.4 1011.85 1161.87 1009.39 1164.91 1009.39C1167.95 1009.39 1170.41 1011.85 1170.41 1014.89C1170.41 1017.92 1167.95 1020.38 1164.91 1020.38C1161.87 1020.38 1159.4 1017.92 1159.4 1014.89Z" fill="white" fill-opacity="0.4"/>
<path d="M1378.32 666.571C1378.32 663.536 1380.79 661.073 1383.83 661.073C1386.87 661.073 1389.33 663.536 1389.33 666.571C1389.33 669.607 1386.87 672.069 1383.83 672.069C1380.79 672.069 1378.32 669.607 1378.32 666.571Z" fill="white" fill-opacity="0.4"/>
<path d="M2229.63 1257.9C2229.63 1254.86 2232.1 1252.4 2235.14 1252.4C2238.18 1252.4 2240.64 1254.86 2240.64 1257.9C2240.64 1260.93 2238.18 1263.4 2235.14 1263.4C2232.1 1263.4 2229.63 1260.93 2229.63 1257.9Z" fill="white" fill-opacity="0.4"/>
<path d="M3519.23 747.44C3519.23 744.405 3521.69 741.946 3524.73 741.946C3527.77 741.946 3530.23 744.405 3530.23 747.44C3530.23 750.48 3527.77 752.938 3524.73 752.938C3521.69 752.938 3519.23 750.48 3519.23 747.44Z" fill="white" fill-opacity="0.7"/>
<path d="M2894.93 520.637C2894.93 517.597 2897.39 515.139 2900.43 515.139C2903.47 515.139 2905.93 517.597 2905.93 520.637C2905.93 523.672 2903.47 526.135 2900.43 526.135C2897.39 526.135 2894.93 523.672 2894.93 520.637Z" fill="white" fill-opacity="0.7"/>
<path d="M3308.43 156.12C3308.43 153.08 3310.89 150.622 3313.93 150.622C3316.97 150.622 3319.43 153.08 3319.43 156.12C3319.43 159.155 3316.97 161.618 3313.93 161.618C3310.89 161.618 3308.43 159.155 3308.43 156.12Z" fill="white" fill-opacity="0.7"/>
<path d="M3235.46 1338.77C3235.46 1335.73 3237.92 1333.27 3240.96 1333.27C3244 1333.27 3246.47 1335.73 3246.47 1338.77C3246.47 1341.81 3244 1344.26 3240.96 1344.26C3237.92 1344.26 3235.46 1341.81 3235.46 1338.77Z" fill="white" fill-opacity="0.7"/>
<path d="M2757.09 682.638C2757.09 679.602 2759.56 677.144 2762.59 677.144C2765.63 677.144 2768.1 679.602 2768.1 682.638C2768.1 685.677 2765.63 688.136 2762.59 688.136C2759.56 688.136 2757.09 685.677 2757.09 682.638Z" fill="white" fill-opacity="0.7"/>
<path d="M3527.33 1192.97C3527.33 1189.93 3529.8 1187.47 3532.84 1187.47C3535.88 1187.47 3538.34 1189.93 3538.34 1192.97C3538.34 1196 3535.88 1198.47 3532.84 1198.47C3529.8 1198.47 3527.33 1196 3527.33 1192.97Z" fill="white" fill-opacity="0.7"/>
<path d="M3794.88 75.1119C3794.88 72.0762 3797.35 69.6177 3800.39 69.6177C3803.42 69.6177 3805.89 72.0762 3805.89 75.1119C3805.89 78.1513 3803.42 80.6099 3800.39 80.6099C3797.35 80.6099 3794.88 78.1513 3794.88 75.1119Z" fill="white" fill-opacity="0.7"/>
<path d="M3689.5 1055.26C3689.5 1052.22 3691.96 1049.76 3695 1049.76C3698.03 1049.76 3700.5 1052.22 3700.5 1055.26C3700.5 1058.3 3698.03 1060.75 3695 1060.75C3691.96 1060.75 3689.5 1058.3 3689.5 1055.26Z" fill="white" fill-opacity="0.7"/>
<path d="M2213.87 204.716C2213.87 201.681 2216.33 199.222 2219.37 199.222C2222.41 199.222 2224.88 201.681 2224.88 204.716C2224.88 207.756 2222.41 210.214 2219.37 210.214C2216.33 210.214 2213.87 207.756 2213.87 204.716Z" fill="white" fill-opacity="0.7"/>
<path d="M2805.75 67.0156C2805.75 63.9761 2808.21 61.5176 2811.25 61.5176C2814.29 61.5176 2816.75 63.9761 2816.75 67.0156C2816.75 70.0513 2814.29 72.5136 2811.25 72.5136C2808.21 72.5136 2805.75 70.0513 2805.75 67.0156Z" fill="white" fill-opacity="0.7"/>
<path d="M2157.12 787.945C2157.12 784.906 2159.59 782.447 2162.63 782.447C2165.66 782.447 2168.13 784.906 2168.13 787.945C2168.13 790.981 2165.66 793.439 2162.63 793.439C2159.59 793.439 2157.12 790.981 2157.12 787.945Z" fill="white" fill-opacity="0.7"/>
<path d="M3851.64 893.251C3851.64 890.211 3854.11 887.753 3857.14 887.753C3860.18 887.753 3862.65 890.211 3862.65 893.251C3862.65 896.287 3860.18 898.749 3857.14 898.749C3854.11 898.749 3851.64 896.287 3851.64 893.251Z" fill="white" fill-opacity="0.7"/>
<path d="M3316.53 399.127C3316.53 396.091 3318.99 393.633 3322.03 393.633C3325.07 393.633 3327.53 396.091 3327.53 399.127C3327.53 402.167 3325.07 404.625 3322.03 404.625C3318.99 404.625 3316.53 402.167 3316.53 399.127Z" fill="white" fill-opacity="0.7"/>
<path d="M3535.44 50.8135C3535.44 47.774 3537.91 45.3154 3540.94 45.3154C3543.98 45.3154 3546.45 47.774 3546.45 50.8135C3546.45 53.8491 3543.98 56.3076 3540.94 56.3076C3537.91 56.3076 3535.44 53.8491 3535.44 50.8135Z" fill="white" fill-opacity="0.7"/>
</g>
</g>
</g>
<g opacity="0.0674944">
<rect width="353.123" height="5.05667" rx="2.52833" transform="matrix(0.769291 0.638898 -0.204237 0.978921 1334.64 724.337)" fill="url(#paint1_linear_40000053_3)"/>
<g filter="url(#filter0_d_40000053_3)">
<rect width="5.3356" height="4.675" rx="2.3375" transform="matrix(0.769291 0.638898 -0.204237 0.978921 1602.28 946.632)" fill="white" fill-opacity="0.2" shape-rendering="crispEdges"/>
</g>
</g>
<g opacity="0.01">
<rect width="227.234" height="6.97246" rx="3.48623" transform="matrix(0.652166 0.758076 -0.147436 0.989072 1878.49 1026.18)" fill="url(#paint2_linear_40000053_3)"/>
<g filter="url(#filter1_d_40000053_3)">
<rect width="3.21412" height="6.675" rx="1.60706" transform="matrix(0.652166 0.758076 -0.147436 0.989072 2024.12 1195.47)" fill="white" fill-opacity="0.2" shape-rendering="crispEdges"/>
</g>
</g>
<g opacity="0.02204">
<rect width="422.718" height="6.26865" rx="3.13433" transform="matrix(0.800771 0.598971 -0.225675 0.974203 1577.42 1109.19)" fill="url(#paint3_linear_40000053_3)"/>
<g filter="url(#filter2_d_40000053_3)">
<rect width="7.33775" height="5.68121" rx="2.675" transform="matrix(0.800771 0.598971 -0.225675 0.974203 1910 1357.95)" fill="white" fill-opacity="0.2" shape-rendering="crispEdges"/>
</g>
</g>
<g opacity="0.01">
<rect width="378.424" height="5.75929" rx="2.87964" transform="matrix(0.782575 0.622556 -0.212819 0.977092 1742.81 1231.86)" fill="url(#paint4_linear_40000053_3)"/>
<g filter="url(#filter3_d_40000053_3)">
<rect width="6.42824" height="6.18943" rx="2.675" transform="matrix(0.782575 0.622556 -0.212819 0.977092 2033.42 1463.05)" fill="white" fill-opacity="0.2" shape-rendering="crispEdges"/>
</g>
</g>
<g opacity="0.0438506">
<rect width="305.762" height="5.50957" rx="2.75478" transform="matrix(0.738739 0.673992 -0.186583 0.982439 1481.79 1961.23)" fill="url(#paint5_linear_40000053_3)"/>
</g>
<g opacity="0.0603289">
<rect width="266.885" height="6.07915" rx="3.03957" transform="matrix(0.703611 0.710585 -0.169101 0.985599 1439.66 575.605)" fill="url(#paint6_linear_40000053_3)"/>
<g filter="url(#filter4_d_40000053_3)">
<rect width="4.07839" height="5.675" rx="2.03919" transform="matrix(0.703611 0.710585 -0.169101 0.985599 1624.93 762.732)" fill="white" fill-opacity="0.2" shape-rendering="crispEdges"/>
</g>
</g>
<g opacity="0.130861">
<rect width="341.849" height="5.39998" rx="2.69999" transform="matrix(0.763159 0.646211 -0.200476 0.979699 1153.46 355.642)" fill="url(#paint7_linear_40000053_3)"/>
<g filter="url(#filter5_d_40000053_3)">
<rect width="5.64837" height="4.84168" rx="2.42084" transform="matrix(0.763159 0.646211 -0.200476 0.979699 1409.83 572.714)" fill="white" fill-opacity="0.2" shape-rendering="crispEdges"/>
</g>
</g>
<g opacity="0.01">
<rect width="276.96" height="5.90997" rx="2.95498" transform="matrix(0.713869 0.70028 -0.173942 0.984756 2248.63 718.692)" fill="url(#paint8_linear_40000053_3)"/>
<g filter="url(#filter6_d_40000053_3)">
<rect width="4.29235" height="5.675" rx="2.14618" transform="matrix(0.713869 0.70028 -0.173942 0.984756 2443.42 909.776)" fill="white" fill-opacity="0.2" shape-rendering="crispEdges"/>
</g>
</g>
<g opacity="0.0139401">
<rect width="376.244" height="5.77738" rx="2.88869" transform="matrix(0.781575 0.623812 -0.212152 0.977237 1736.13 660.645)" fill="url(#paint9_linear_40000053_3)"/>
<g filter="url(#filter7_d_40000053_3)">
<rect width="6.37885" height="6.18943" rx="2.675" transform="matrix(0.781575 0.623812 -0.212152 0.977237 2024.64 890.909)" fill="white" fill-opacity="0.2" shape-rendering="crispEdges"/>
</g>
</g>
<g opacity="0.079946">
<rect width="327.499" height="5.26875" rx="2.63438" transform="matrix(0.754068 0.656796 -0.195111 0.980781 2076.25 506.163)" fill="url(#paint10_linear_40000053_3)"/>
<g filter="url(#filter8_d_40000053_3)">
<rect width="5.3356" height="4.675" rx="2.3375" transform="matrix(0.754068 0.656796 -0.195111 0.980781 2319.19 717.751)" fill="white" fill-opacity="0.2" shape-rendering="crispEdges"/>
</g>
</g>
<g opacity="0.0294704">
<rect width="281.74" height="5.83562" rx="2.91781" transform="matrix(0.718425 0.695605 -0.176158 0.984362 2690.25 635.179)" fill="url(#paint11_linear_40000053_3)"/>
<g filter="url(#filter9_d_40000053_3)">
<rect width="4.37671" height="5.675" rx="2.18836" transform="matrix(0.718425 0.695605 -0.176158 0.984362 2889.88 828.442)" fill="white" fill-opacity="0.2" shape-rendering="crispEdges"/>
</g>
</g>
<g opacity="0.2657">
<rect width="315.837" height="5.39248" rx="2.69624" transform="matrix(0.74616 0.665766 -0.190634 0.981661 575.956 -56.4961)" fill="url(#paint12_linear_40000053_3)"/>
<g filter="url(#filter10_d_40000053_3)">
<rect width="5.09691" height="4.675" rx="2.3375" transform="matrix(0.74616 0.665766 -0.190634 0.981661 808.138 150.67)" fill="white" fill-opacity="0.2" shape-rendering="crispEdges"/>
</g>
</g>
<g opacity="0.05102">
<rect width="306.365" height="5.50227" rx="2.75113" transform="matrix(0.7392 0.673486 -0.18683 0.982392 2127.13 567.606)" fill="url(#paint13_linear_40000053_3)"/>
<g filter="url(#filter11_d_40000053_3)">
<rect width="4.9035" height="5.675" rx="2.45175" transform="matrix(0.7392 0.673486 -0.18683 0.982392 2349.93 770.579)" fill="white" fill-opacity="0.2" shape-rendering="crispEdges"/>
</g>
</g>
<g opacity="0.269626">
<rect width="322.327" height="5.32217" rx="2.66109" transform="matrix(0.750645 0.660706 -0.193152 0.981169 -42.9619 1240.21)" fill="url(#paint14_linear_40000053_3)"/>
<g filter="url(#filter12_d_40000053_3)">
<rect width="5.24095" height="4.675" rx="2.3375" transform="matrix(0.750645 0.660706 -0.193152 0.981169 194.871 1449.55)" fill="white" fill-opacity="0.2" shape-rendering="crispEdges"/>
</g>
</g>
<g opacity="0.02204">
<rect width="374.842" height="5.78918" rx="2.89459" transform="matrix(0.780926 0.624624 -0.211719 0.977331 1600.21 771.201)" fill="url(#paint15_linear_40000053_3)"/>
<g filter="url(#filter13_d_40000053_3)">
<rect width="6.34387" height="6.16476" rx="2.675" transform="matrix(0.780926 0.624624 -0.211719 0.977331 1888.16 1001.52)" fill="white" fill-opacity="0.2" shape-rendering="crispEdges"/>
</g>
</g>
<g opacity="0.0863179">
<rect width="255.597" height="6.2919" rx="3.14595" transform="matrix(0.690939 0.722913 -0.163383 0.986563 1906.47 502.687)" fill="url(#paint16_linear_40000053_3)"/>
<g filter="url(#filter14_d_40000053_3)">
<rect width="3.82525" height="5.675" rx="1.91262" transform="matrix(0.690939 0.722913 -0.163383 0.986563 2080.91 685.19)" fill="white" fill-opacity="0.2" shape-rendering="crispEdges"/>
</g>
</g>
<g opacity="0.0663364">
<rect width="268.376" height="6.05298" rx="3.02649" transform="matrix(0.705189 0.70902 -0.169832 0.985473 2039.16 557.899)" fill="url(#paint17_linear_40000053_3)"/>
<g filter="url(#filter15_d_40000053_3)">
<rect width="4.11333" height="5.675" rx="2.05666" transform="matrix(0.705189 0.70902 -0.169832 0.985473 2225.24 745.001)" fill="white" fill-opacity="0.2" shape-rendering="crispEdges"/>
</g>
</g>
</g>
<defs>
<filter id="filter0_d_40000053_3" x="1582.6" y="927.907" width="42.5096" height="45.4353" filterUnits="userSpaceOnUse" color-interpolation-filters="sRGB">
<feFlood flood-opacity="0" result="BackgroundImageFix"/>
<feColorMatrix in="SourceAlpha" type="matrix" values="0 0 0 0 0 0 0 0 0 0 0 0 0 0 0 0 0 0 127 0" result="hardAlpha"/>
<feMorphology radius="2.675" operator="dilate" in="SourceAlpha" result="effect1_dropShadow_40000053_3"/>
<feOffset/>
<feGaussianBlur stdDeviation="8.025"/>
<feComposite in2="hardAlpha" operator="out"/>
<feColorMatrix type="matrix" values="0 0 0 0 1 0 0 0 0 1 0 0 0 0 1 0 0 0 0.6 0"/>
<feBlend mode="normal" in2="BackgroundImageFix" result="effect1_dropShadow_40000053_3"/>
<feBlend mode="normal" in="SourceGraphic" in2="effect1_dropShadow_40000053_3" result="shape"/>
</filter>
<filter id="filter1_d_40000053_3" x="2004.41" y="1176.74" width="40.5301" height="46.4891" filterUnits="userSpaceOnUse" color-interpolation-filters="sRGB">
<feFlood flood-opacity="0" result="BackgroundImageFix"/>
<feColorMatrix in="SourceAlpha" type="matrix" values="0 0 0 0 0 0 0 0 0 0 0 0 0 0 0 0 0 0 127 0" result="hardAlpha"/>
<feMorphology radius="2.675" operator="dilate" in="SourceAlpha" result="effect1_dropShadow_40000053_3"/>
<feOffset/>
<feGaussianBlur stdDeviation="8.025"/>
<feComposite in2="hardAlpha" operator="out"/>
<feColorMatrix type="matrix" values="0 0 0 0 1 0 0 0 0 1 0 0 0 0 1 0 0 0 0.6 0"/>
<feBlend mode="normal" in2="BackgroundImageFix" result="effect1_dropShadow_40000053_3"/>
<feBlend mode="normal" in="SourceGraphic" in2="effect1_dropShadow_40000053_3" result="shape"/>
</filter>
<filter id="filter2_d_40000053_3" x="1889.99" y="1339.23" width="44.6082" height="47.3797" filterUnits="userSpaceOnUse" color-interpolation-filters="sRGB">
<feFlood flood-opacity="0" result="BackgroundImageFix"/>
<feColorMatrix in="SourceAlpha" type="matrix" values="0 0 0 0 0 0 0 0 0 0 0 0 0 0 0 0 0 0 127 0" result="hardAlpha"/>
<feMorphology radius="2.675" operator="dilate" in="SourceAlpha" result="effect1_dropShadow_40000053_3"/>
<feOffset/>
<feGaussianBlur stdDeviation="8.025"/>
<feComposite in2="hardAlpha" operator="out"/>
<feColorMatrix type="matrix" values="0 0 0 0 1 0 0 0 0 1 0 0 0 0 1 0 0 0 0.6 0"/>
<feBlend mode="normal" in2="BackgroundImageFix" result="effect1_dropShadow_40000053_3"/>
<feBlend mode="normal" in="SourceGraphic" in2="effect1_dropShadow_40000053_3" result="shape"/>
</filter>
<filter id="filter3_d_40000053_3" x="2013.38" y="1444.32" width="43.7977" height="47.4998" filterUnits="userSpaceOnUse" color-interpolation-filters="sRGB">
<feFlood flood-opacity="0" result="BackgroundImageFix"/>
<feColorMatrix in="SourceAlpha" type="matrix" values="0 0 0 0 0 0 0 0 0 0 0 0 0 0 0 0 0 0 127 0" result="hardAlpha"/>
<feMorphology radius="2.675" operator="dilate" in="SourceAlpha" result="effect1_dropShadow_40000053_3"/>
<feOffset/>
<feGaussianBlur stdDeviation="8.025"/>
<feComposite in2="hardAlpha" operator="out"/>
<feColorMatrix type="matrix" values="0 0 0 0 1 0 0 0 0 1 0 0 0 0 1 0 0 0 0.6 0"/>
<feBlend mode="normal" in2="BackgroundImageFix" result="effect1_dropShadow_40000053_3"/>
<feBlend mode="normal" in="SourceGraphic" in2="effect1_dropShadow_40000053_3" result="shape"/>
</filter>
<filter id="filter4_d_40000053_3" x="1605.25" y="744.007" width="41.2791" height="45.9412" filterUnits="userSpaceOnUse" color-interpolation-filters="sRGB">
<feFlood flood-opacity="0" result="BackgroundImageFix"/>
<feColorMatrix in="SourceAlpha" type="matrix" values="0 0 0 0 0 0 0 0 0 0 0 0 0 0 0 0 0 0 127 0" result="hardAlpha"/>
<feMorphology radius="2.675" operator="dilate" in="SourceAlpha" result="effect1_dropShadow_40000053_3"/>
<feOffset/>
<feGaussianBlur stdDeviation="8.025"/>
<feComposite in2="hardAlpha" operator="out"/>
<feColorMatrix type="matrix" values="0 0 0 0 1 0 0 0 0 1 0 0 0 0 1 0 0 0 0.6 0"/>
<feBlend mode="normal" in2="BackgroundImageFix" result="effect1_dropShadow_40000053_3"/>
<feBlend mode="normal" in="SourceGraphic" in2="effect1_dropShadow_40000053_3" result="shape"/>
</filter>
<filter id="filter5_d_40000053_3" x="1390.14" y="553.989" width="42.7312" height="45.8436" filterUnits="userSpaceOnUse" color-interpolation-filters="sRGB">
<feFlood flood-opacity="0" result="BackgroundImageFix"/>
<feColorMatrix in="SourceAlpha" type="matrix" values="0 0 0 0 0 0 0 0 0 0 0 0 0 0 0 0 0 0 127 0" result="hardAlpha"/>
<feMorphology radius="2.675" operator="dilate" in="SourceAlpha" result="effect1_dropShadow_40000053_3"/>
<feOffset/>
<feGaussianBlur stdDeviation="8.025"/>
<feComposite in2="hardAlpha" operator="out"/>
<feColorMatrix type="matrix" values="0 0 0 0 1 0 0 0 0 1 0 0 0 0 1 0 0 0 0.6 0"/>
<feBlend mode="normal" in2="BackgroundImageFix" result="effect1_dropShadow_40000053_3"/>
<feBlend mode="normal" in="SourceGraphic" in2="effect1_dropShadow_40000053_3" result="shape"/>
</filter>
<filter id="filter6_d_40000053_3" x="2423.71" y="891.051" width="41.5018" height="46.0447" filterUnits="userSpaceOnUse" color-interpolation-filters="sRGB">
<feFlood flood-opacity="0" result="BackgroundImageFix"/>
<feColorMatrix in="SourceAlpha" type="matrix" values="0 0 0 0 0 0 0 0 0 0 0 0 0 0 0 0 0 0 127 0" result="hardAlpha"/>
<feMorphology radius="2.675" operator="dilate" in="SourceAlpha" result="effect1_dropShadow_40000053_3"/>
<feOffset/>
<feGaussianBlur stdDeviation="8.025"/>
<feComposite in2="hardAlpha" operator="out"/>
<feColorMatrix type="matrix" values="0 0 0 0 1 0 0 0 0 1 0 0 0 0 1 0 0 0 0.6 0"/>
<feBlend mode="normal" in2="BackgroundImageFix" result="effect1_dropShadow_40000053_3"/>
<feBlend mode="normal" in="SourceGraphic" in2="effect1_dropShadow_40000053_3" result="shape"/>
</filter>
<filter id="filter7_d_40000053_3" x="2004.6" y="872.184" width="43.7488" height="47.4773" filterUnits="userSpaceOnUse" color-interpolation-filters="sRGB">
<feFlood flood-opacity="0" result="BackgroundImageFix"/>
<feColorMatrix in="SourceAlpha" type="matrix" values="0 0 0 0 0 0 0 0 0 0 0 0 0 0 0 0 0 0 127 0" result="hardAlpha"/>
<feMorphology radius="2.675" operator="dilate" in="SourceAlpha" result="effect1_dropShadow_40000053_3"/>
<feOffset/>
<feGaussianBlur stdDeviation="8.025"/>
<feComposite in2="hardAlpha" operator="out"/>
<feColorMatrix type="matrix" values="0 0 0 0 1 0 0 0 0 1 0 0 0 0 1 0 0 0 0.6 0"/>
<feBlend mode="normal" in2="BackgroundImageFix" result="effect1_dropShadow_40000053_3"/>
<feBlend mode="normal" in="SourceGraphic" in2="effect1_dropShadow_40000053_3" result="shape"/>
</filter>
<filter id="filter8_d_40000053_3" x="2299.55" y="699.026" width="42.3855" height="45.5398" filterUnits="userSpaceOnUse" color-interpolation-filters="sRGB">
<feFlood flood-opacity="0" result="BackgroundImageFix"/>
<feColorMatrix in="SourceAlpha" type="matrix" values="0 0 0 0 0 0 0 0 0 0 0 0 0 0 0 0 0 0 127 0" result="hardAlpha"/>
<feMorphology radius="2.675" operator="dilate" in="SourceAlpha" result="effect1_dropShadow_40000053_3"/>
<feOffset/>
<feGaussianBlur stdDeviation="8.025"/>
<feComposite in2="hardAlpha" operator="out"/>
<feColorMatrix type="matrix" values="0 0 0 0 1 0 0 0 0 1 0 0 0 0 1 0 0 0 0.6 0"/>
<feBlend mode="normal" in2="BackgroundImageFix" result="effect1_dropShadow_40000053_3"/>
<feBlend mode="normal" in="SourceGraphic" in2="effect1_dropShadow_40000053_3" result="shape"/>
</filter>
<filter id="filter9_d_40000053_3" x="2870.15" y="809.717" width="41.5945" height="46.0809" filterUnits="userSpaceOnUse" color-interpolation-filters="sRGB">
<feFlood flood-opacity="0" result="BackgroundImageFix"/>
<feColorMatrix in="SourceAlpha" type="matrix" values="0 0 0 0 0 0 0 0 0 0 0 0 0 0 0 0 0 0 127 0" result="hardAlpha"/>
<feMorphology radius="2.675" operator="dilate" in="SourceAlpha" result="effect1_dropShadow_40000053_3"/>
<feOffset/>
<feGaussianBlur stdDeviation="8.025"/>
<feComposite in2="hardAlpha" operator="out"/>
<feColorMatrix type="matrix" values="0 0 0 0 1 0 0 0 0 1 0 0 0 0 1 0 0 0 0.6 0"/>
<feBlend mode="normal" in2="BackgroundImageFix" result="effect1_dropShadow_40000053_3"/>
<feBlend mode="normal" in="SourceGraphic" in2="effect1_dropShadow_40000053_3" result="shape"/>
</filter>
<filter id="filter10_d_40000053_3" x="788.521" y="131.945" width="42.1443" height="45.4324" filterUnits="userSpaceOnUse" color-interpolation-filters="sRGB">
<feFlood flood-opacity="0" result="BackgroundImageFix"/>
<feColorMatrix in="SourceAlpha" type="matrix" values="0 0 0 0 0 0 0 0 0 0 0 0 0 0 0 0 0 0 127 0" result="hardAlpha"/>
<feMorphology radius="2.675" operator="dilate" in="SourceAlpha" result="effect1_dropShadow_40000053_3"/>
<feOffset/>
<feGaussianBlur stdDeviation="8.025"/>
<feComposite in2="hardAlpha" operator="out"/>
<feColorMatrix type="matrix" values="0 0 0 0 1 0 0 0 0 1 0 0 0 0 1 0 0 0 0.6 0"/>
<feBlend mode="normal" in2="BackgroundImageFix" result="effect1_dropShadow_40000053_3"/>
<feBlend mode="normal" in="SourceGraphic" in2="effect1_dropShadow_40000053_3" result="shape"/>
</filter>
<filter id="filter11_d_40000053_3" x="2330.15" y="751.854" width="42.1355" height="46.3279" filterUnits="userSpaceOnUse" color-interpolation-filters="sRGB">
<feFlood flood-opacity="0" result="BackgroundImageFix"/>
<feColorMatrix in="SourceAlpha" type="matrix" values="0 0 0 0 0 0 0 0 0 0 0 0 0 0 0 0 0 0 127 0" result="hardAlpha"/>
<feMorphology radius="2.675" operator="dilate" in="SourceAlpha" result="effect1_dropShadow_40000053_3"/>
<feOffset/>
<feGaussianBlur stdDeviation="8.025"/>
<feComposite in2="hardAlpha" operator="out"/>
<feColorMatrix type="matrix" values="0 0 0 0 1 0 0 0 0 1 0 0 0 0 1 0 0 0 0.6 0"/>
<feBlend mode="normal" in2="BackgroundImageFix" result="effect1_dropShadow_40000053_3"/>
<feBlend mode="normal" in="SourceGraphic" in2="effect1_dropShadow_40000053_3" result="shape"/>
</filter>
<filter id="filter12_d_40000053_3" x="175.243" y="1430.83" width="42.2879" height="45.4998" filterUnits="userSpaceOnUse" color-interpolation-filters="sRGB">
<feFlood flood-opacity="0" result="BackgroundImageFix"/>
<feColorMatrix in="SourceAlpha" type="matrix" values="0 0 0 0 0 0 0 0 0 0 0 0 0 0 0 0 0 0 127 0" result="hardAlpha"/>
<feMorphology radius="2.675" operator="dilate" in="SourceAlpha" result="effect1_dropShadow_40000053_3"/>
<feOffset/>
<feGaussianBlur stdDeviation="8.025"/>
<feComposite in2="hardAlpha" operator="out"/>
<feColorMatrix type="matrix" values="0 0 0 0 1 0 0 0 0 1 0 0 0 0 1 0 0 0 0.6 0"/>
<feBlend mode="normal" in2="BackgroundImageFix" result="effect1_dropShadow_40000053_3"/>
<feBlend mode="normal" in="SourceGraphic" in2="effect1_dropShadow_40000053_3" result="shape"/>
</filter>
<filter id="filter13_d_40000053_3" x="1868.13" y="982.796" width="43.7098" height="47.4373" filterUnits="userSpaceOnUse" color-interpolation-filters="sRGB">
<feFlood flood-opacity="0" result="BackgroundImageFix"/>
<feColorMatrix in="SourceAlpha" type="matrix" values="0 0 0 0 0 0 0 0 0 0 0 0 0 0 0 0 0 0 127 0" result="hardAlpha"/>
<feMorphology radius="2.675" operator="dilate" in="SourceAlpha" result="effect1_dropShadow_40000053_3"/>
<feOffset/>
<feGaussianBlur stdDeviation="8.025"/>
<feComposite in2="hardAlpha" operator="out"/>
<feColorMatrix type="matrix" values="0 0 0 0 1 0 0 0 0 1 0 0 0 0 1 0 0 0 0.6 0"/>
<feBlend mode="normal" in2="BackgroundImageFix" result="effect1_dropShadow_40000053_3"/>
<feBlend mode="normal" in="SourceGraphic" in2="effect1_dropShadow_40000053_3" result="shape"/>
</filter>
<filter id="filter14_d_40000053_3" x="2061.26" y="666.465" width="41.0193" height="45.8143" filterUnits="userSpaceOnUse" color-interpolation-filters="sRGB">
<feFlood flood-opacity="0" result="BackgroundImageFix"/>
<feColorMatrix in="SourceAlpha" type="matrix" values="0 0 0 0 0 0 0 0 0 0 0 0 0 0 0 0 0 0 127 0" result="hardAlpha"/>
<feMorphology radius="2.675" operator="dilate" in="SourceAlpha" result="effect1_dropShadow_40000053_3"/>
<feOffset/>
<feGaussianBlur stdDeviation="8.025"/>
<feComposite in2="hardAlpha" operator="out"/>
<feColorMatrix type="matrix" values="0 0 0 0 1 0 0 0 0 1 0 0 0 0 1 0 0 0 0.6 0"/>
<feBlend mode="normal" in2="BackgroundImageFix" result="effect1_dropShadow_40000053_3"/>
<feBlend mode="normal" in="SourceGraphic" in2="effect1_dropShadow_40000053_3" result="shape"/>
</filter>
<filter id="filter15_d_40000053_3" x="2205.55" y="726.276" width="41.3143" height="45.9588" filterUnits="userSpaceOnUse" color-interpolation-filters="sRGB">
<feFlood flood-opacity="0" result="BackgroundImageFix"/>
<feColorMatrix in="SourceAlpha" type="matrix" values="0 0 0 0 0 0 0 0 0 0 0 0 0 0 0 0 0 0 127 0" result="hardAlpha"/>
<feMorphology radius="2.675" operator="dilate" in="SourceAlpha" result="effect1_dropShadow_40000053_3"/>
<feOffset/>
<feGaussianBlur stdDeviation="8.025"/>
<feComposite in2="hardAlpha" operator="out"/>
<feColorMatrix type="matrix" values="0 0 0 0 1 0 0 0 0 1 0 0 0 0 1 0 0 0 0.6 0"/>
<feBlend mode="normal" in2="BackgroundImageFix" result="effect1_dropShadow_40000053_3"/>
<feBlend mode="normal" in="SourceGraphic" in2="effect1_dropShadow_40000053_3" result="shape"/>
</filter>
<radialGradient id="paint0_radial_40000053_3" cx="0" cy="0" r="1" gradientUnits="userSpaceOnUse" gradientTransform="translate(3852 204.1) scale(3539.99 1696.07)">
<stop stop-color="#222224" stop-opacity="0.58"/>
<stop offset="1" stop-color="#080808" stop-opacity="0"/>
</radialGradient>
<linearGradient id="paint1_linear_40000053_3" x1="353.123" y1="2.52833" x2="0" y2="2.52833" gradientUnits="userSpaceOnUse">
<stop stop-color="white" stop-opacity="0.6"/>
<stop offset="1" stop-color="white" stop-opacity="0"/>
</linearGradient>
<linearGradient id="paint2_linear_40000053_3" x1="227.234" y1="3.48623" x2="0" y2="3.48623" gradientUnits="userSpaceOnUse">
<stop stop-color="white" stop-opacity="0.6"/>
<stop offset="1" stop-color="white" stop-opacity="0"/>
</linearGradient>
<linearGradient id="paint3_linear_40000053_3" x1="422.718" y1="3.13433" x2="0" y2="3.13433" gradientUnits="userSpaceOnUse">
<stop stop-color="white" stop-opacity="0.6"/>
<stop offset="1" stop-color="white" stop-opacity="0"/>
</linearGradient>
<linearGradient id="paint4_linear_40000053_3" x1="378.424" y1="2.87964" x2="0" y2="2.87964" gradientUnits="userSpaceOnUse">
<stop stop-color="white" stop-opacity="0.6"/>
<stop offset="1" stop-color="white" stop-opacity="0"/>
</linearGradient>
<linearGradient id="paint5_linear_40000053_3" x1="305.762" y1="2.75478" x2="0" y2="2.75478" gradientUnits="userSpaceOnUse">
<stop stop-color="white" stop-opacity="0.6"/>
<stop offset="1" stop-color="white" stop-opacity="0"/>
</linearGradient>
<linearGradient id="paint6_linear_40000053_3" x1="266.885" y1="3.03957" x2="0" y2="3.03957" gradientUnits="userSpaceOnUse">
<stop stop-color="white" stop-opacity="0.6"/>
<stop offset="1" stop-color="white" stop-opacity="0"/>
</linearGradient>
<linearGradient id="paint7_linear_40000053_3" x1="341.849" y1="2.69999" x2="0" y2="2.69999" gradientUnits="userSpaceOnUse">
<stop stop-color="white" stop-opacity="0.6"/>
<stop offset="1" stop-color="white" stop-opacity="0"/>
</linearGradient>
<linearGradient id="paint8_linear_40000053_3" x1="276.96" y1="2.95498" x2="0" y2="2.95498" gradientUnits="userSpaceOnUse">
<stop stop-color="white" stop-opacity="0.6"/>
<stop offset="1" stop-color="white" stop-opacity="0"/>
</linearGradient>
<linearGradient id="paint9_linear_40000053_3" x1="376.244" y1="2.88869" x2="0" y2="2.88869" gradientUnits="userSpaceOnUse">
<stop stop-color="white" stop-opacity="0.6"/>
<stop offset="1" stop-color="white" stop-opacity="0"/>
</linearGradient>
<linearGradient id="paint10_linear_40000053_3" x1="327.499" y1="2.63438" x2="0" y2="2.63438" gradientUnits="userSpaceOnUse">
<stop stop-color="white" stop-opacity="0.6"/>
<stop offset="1" stop-color="white" stop-opacity="0"/>
</linearGradient>
<linearGradient id="paint11_linear_40000053_3" x1="281.74" y1="2.91781" x2="0" y2="2.91781" gradientUnits="userSpaceOnUse">
<stop stop-color="white" stop-opacity="0.6"/>
<stop offset="1" stop-color="white" stop-opacity="0"/>
</linearGradient>
<linearGradient id="paint12_linear_40000053_3" x1="315.837" y1="2.69624" x2="0" y2="2.69624" gradientUnits="userSpaceOnUse">
<stop stop-color="white" stop-opacity="0.6"/>
<stop offset="1" stop-color="white" stop-opacity="0"/>
</linearGradient>
<linearGradient id="paint13_linear_40000053_3" x1="306.365" y1="2.75113" x2="0" y2="2.75113" gradientUnits="userSpaceOnUse">
<stop stop-color="white" stop-opacity="0.6"/>
<stop offset="1" stop-color="white" stop-opacity="0"/>
</linearGradient>
<linearGradient id="paint14_linear_40000053_3" x1="322.327" y1="2.66109" x2="0" y2="2.66109" gradientUnits="userSpaceOnUse">
<stop stop-color="white" stop-opacity="0.6"/>
<stop offset="1" stop-color="white" stop-opacity="0"/>
</linearGradient>
<linearGradient id="paint15_linear_40000053_3" x1="374.842" y1="2.89459" x2="0" y2="2.89459" gradientUnits="userSpaceOnUse">
<stop stop-color="white" stop-opacity="0.6"/>
<stop offset="1" stop-color="white" stop-opacity="0"/>
</linearGradient>
<linearGradient id="paint16_linear_40000053_3" x1="255.597" y1="3.14595" x2="0" y2="3.14595" gradientUnits="userSpaceOnUse">
<stop stop-color="white" stop-opacity="0.6"/>
<stop offset="1" stop-color="white" stop-opacity="0"/>
</linearGradient>
<linearGradient id="paint17_linear_40000053_3" x1="268.376" y1="3.02649" x2="0" y2="3.02649" gradientUnits="userSpaceOnUse">
<stop stop-color="white" stop-opacity="0.6"/>
<stop offset="1" stop-color="white" stop-opacity="0"/>
</linearGradient>
<clipPath id="clip0_40000053_3">
<rect width="3852" height="2041" fill="white"/>
</clipPath>
<clipPath id="clip1_40000053_3">
<rect width="3852" height="1452.53" fill="white"/>
</clipPath>
<clipPath id="clip2_40000053_3">
<rect width="3852" height="2089.17" fill="white" transform="translate(0 -48.1499)"/>
</clipPath>
</defs>
</svg>
