<svg width="1781" height="1986" viewBox="0 0 1781 1986" fill="none" xmlns="http://www.w3.org/2000/svg">
<rect width="1781" height="1985.82" fill="#010103"/>
<g clip-path="url(#clip0_40000053_3)">
<rect width="1781" height="943.671" fill="url(#paint0_radial_40000053_3)"/>
<g opacity="0.15">
<g clip-path="url(#clip1_40000053_3)">
<g clip-path="url(#clip2_40000053_3)">
<path d="M615.976 336.688C615.976 334.582 617.684 332.876 619.792 332.876C621.899 332.876 623.609 334.582 623.609 336.688C623.609 338.794 621.899 340.502 619.792 340.502C617.684 340.502 615.976 338.794 615.976 336.688Z" fill="white" fill-opacity="0.2"/>
<path d="M327.325 231.821C327.325 229.717 329.035 228.009 331.142 228.009C333.249 228.009 334.959 229.717 334.959 231.821C334.959 233.928 333.249 235.635 331.142 235.635C329.035 235.635 327.325 233.928 327.325 231.821Z" fill="white" fill-opacity="0.2"/>
<path d="M983.347 149.425C983.347 147.319 985.055 145.613 987.163 145.613C989.27 145.613 990.98 147.319 990.98 149.425C990.98 151.531 989.27 153.237 987.163 153.237C985.055 153.237 983.347 151.531 983.347 149.425Z" fill="white" fill-opacity="0.2"/>
<path d="M518.508 63.2853C518.508 61.1809 520.216 59.4731 522.325 59.4731C524.431 59.4731 526.141 61.1809 526.141 63.2853C526.141 65.3916 524.431 67.0993 522.325 67.0993C520.216 67.0993 518.508 65.3916 518.508 63.2853Z" fill="white" fill-opacity="0.2"/>
<path d="M484.77 610.092C484.77 607.986 486.478 606.28 488.586 606.28C490.693 606.28 492.403 607.986 492.403 610.092C492.403 612.199 490.693 613.905 488.586 613.905C486.478 613.905 484.77 612.199 484.77 610.092Z" fill="white" fill-opacity="0.2"/>
<path d="M263.599 306.726C263.599 304.62 265.307 302.914 267.415 302.914C269.522 302.914 271.23 304.62 271.23 306.726C271.23 308.832 269.522 310.54 267.415 310.54C265.307 310.54 263.599 308.832 263.599 306.726Z" fill="white" fill-opacity="0.2"/>
<path d="M825.9 201.86C825.9 199.756 827.608 198.048 829.715 198.048C831.824 198.048 833.532 199.756 833.532 201.86C833.532 203.966 831.824 205.674 829.715 205.674C827.608 205.674 825.9 203.966 825.9 201.86Z" fill="white" fill-opacity="0.2"/>
<path d="M945.86 643.8C945.86 641.694 947.568 639.988 949.677 639.988C951.784 639.988 953.494 641.694 953.494 643.8C953.494 645.907 951.784 647.614 949.677 647.614C947.568 647.614 945.86 645.907 945.86 643.8Z" fill="white" fill-opacity="0.2"/>
<path d="M619.723 542.679C619.723 540.575 621.431 538.867 623.539 538.867C625.646 538.867 627.356 540.575 627.356 542.679C627.356 544.786 625.646 546.493 623.539 546.493C621.431 546.493 619.723 544.786 619.723 542.679Z" fill="white" fill-opacity="0.2"/>
<path d="M743.429 25.8322C743.429 23.726 745.138 22.02 747.245 22.02C749.354 22.02 751.062 23.726 751.062 25.8322C751.062 27.9384 749.354 29.6462 747.245 29.6462C745.138 29.6462 743.429 27.9384 743.429 25.8322Z" fill="white" fill-opacity="0.2"/>
<path d="M1436.94 59.5397C1436.94 57.4353 1438.65 55.7275 1440.75 55.7275C1442.86 55.7275 1444.57 57.4353 1444.57 59.5397C1444.57 61.646 1442.86 63.3537 1440.75 63.3537C1438.65 63.3537 1436.94 61.646 1436.94 59.5397Z" fill="white" fill-opacity="0.2"/>
<path d="M1167.03 340.433C1167.03 338.327 1168.74 336.621 1170.85 336.621C1172.96 336.621 1174.67 338.327 1174.67 340.433C1174.67 342.54 1172.96 344.245 1170.85 344.245C1168.74 344.245 1167.03 342.54 1167.03 340.433Z" fill="white" fill-opacity="0.2"/>
<path d="M694.698 479.008C694.698 476.901 696.406 475.195 698.515 475.195C700.622 475.195 702.332 476.901 702.332 479.008C702.332 481.114 700.622 482.821 698.515 482.821C696.406 482.821 694.698 481.114 694.698 479.008Z" fill="white" fill-opacity="0.2"/>
<path d="M12.4365 85.756C12.4365 83.6498 14.1445 81.9438 16.2532 81.9438C18.3601 81.9438 20.0699 83.6498 20.0699 85.756C20.0699 87.8623 18.3601 89.57 16.2532 89.57C14.1445 89.57 12.4365 87.8623 12.4365 85.756Z" fill="white" fill-opacity="0.2"/>
<path d="M286.09 22.0866C286.09 19.9822 287.8 18.2744 289.907 18.2744C292.015 18.2744 293.723 19.9822 293.723 22.0866C293.723 24.1928 292.015 25.9006 289.907 25.9006C287.8 25.9006 286.09 24.1928 286.09 22.0866Z" fill="white" fill-opacity="0.2"/>
<path d="M1200.77 82.0114C1200.77 79.907 1202.47 78.1992 1204.58 78.1992C1206.69 78.1992 1208.4 79.907 1208.4 82.0114C1208.4 84.1176 1206.69 85.8254 1204.58 85.8254C1202.47 85.8254 1200.77 84.1176 1200.77 82.0114Z" fill="white" fill-opacity="0.2"/>
<path d="M1047.07 18.3415C1047.07 16.2353 1048.78 14.5293 1050.89 14.5293C1052.99 14.5293 1054.7 16.2353 1054.7 18.3415C1054.7 20.4477 1052.99 22.1537 1050.89 22.1537C1048.78 22.1537 1047.07 20.4477 1047.07 18.3415Z" fill="white" fill-opacity="0.2"/>
<path d="M769.67 404.103C769.67 401.997 771.378 400.291 773.487 400.291C775.594 400.291 777.302 401.997 777.302 404.103C777.302 406.209 775.594 407.917 773.487 407.917C771.378 407.917 769.67 406.209 769.67 404.103Z" fill="white" fill-opacity="0.2"/>
<path d="M522.254 175.643C522.254 173.537 523.964 171.831 526.071 171.831C528.179 171.831 529.887 173.537 529.887 175.643C529.887 177.749 528.179 179.457 526.071 179.457C523.964 179.457 522.254 177.749 522.254 175.643Z" fill="white" fill-opacity="0.2"/>
<path d="M623.47 14.5964C623.47 12.4901 625.179 10.7842 627.286 10.7842C629.393 10.7842 631.103 12.4901 631.103 14.5964C631.103 16.7026 629.393 18.4103 627.286 18.4103C625.179 18.4103 623.47 16.7026 623.47 14.5964Z" fill="white" fill-opacity="0.2"/>
<path d="M1017.08 288C1017.08 285.893 1018.79 284.188 1020.9 284.188C1023 284.188 1024.71 285.893 1024.71 288C1024.71 290.106 1023 291.814 1020.9 291.814C1018.79 291.814 1017.08 290.106 1017.08 288Z" fill="white" fill-opacity="0.2"/>
<path d="M885.881 640.054C885.881 637.948 887.589 636.242 889.698 636.242C891.804 636.242 893.512 637.948 893.512 640.054C893.512 642.161 891.804 643.867 889.698 643.867C887.589 643.867 885.881 642.161 885.881 640.054Z" fill="white" fill-opacity="0.2"/>
<path d="M356.004 320.982C356.004 319.579 357.144 318.44 358.549 318.44C359.954 318.44 361.092 319.579 361.092 320.982C361.092 322.386 359.954 323.525 358.549 323.525C357.144 323.525 356.004 322.386 356.004 320.982Z" fill="white"/>
<path d="M64.3848 215.035C64.3848 213.632 65.5246 212.493 66.9298 212.493C68.335 212.493 69.4731 213.632 69.4731 215.035C69.4731 216.439 68.335 217.577 66.9298 217.577C65.5246 217.577 64.3848 216.439 64.3848 215.035Z" fill="white"/>
<path d="M727.146 131.794C727.146 130.39 728.286 129.252 729.692 129.252C731.097 129.252 732.235 130.39 732.235 131.794C732.235 133.198 731.097 134.336 729.692 134.336C728.286 134.336 727.146 133.198 727.146 131.794Z" fill="white"/>
<path d="M257.533 44.7662C257.533 43.3626 258.673 42.2241 260.078 42.2241C261.483 42.2241 262.622 43.3626 262.622 44.7662C262.622 46.1697 261.483 47.3082 260.078 47.3082C258.673 47.3082 257.533 46.1697 257.533 44.7662Z" fill="white"/>
<path d="M223.446 597.196C223.446 595.793 224.586 594.654 225.991 594.654C227.397 594.654 228.535 595.793 228.535 597.196C228.535 598.6 227.397 599.738 225.991 599.738C224.586 599.738 223.446 598.6 223.446 597.196Z" fill="white"/>
<path d="M0.00146484 290.71C0.00146484 289.306 1.1413 288.168 2.54651 288.168C3.95172 288.168 5.08978 289.306 5.08978 290.71C5.08978 292.114 3.95172 293.252 2.54651 293.252C1.1413 293.252 0.00146484 292.114 0.00146484 290.71Z" fill="white"/>
<path d="M568.087 184.766C568.087 183.362 569.227 182.224 570.632 182.224C572.037 182.224 573.175 183.362 573.175 184.766C573.175 186.169 572.037 187.308 570.632 187.308C569.227 187.308 568.087 186.169 568.087 184.766Z" fill="white"/>
<path d="M689.275 631.25C689.275 629.847 690.415 628.708 691.82 628.708C693.226 628.708 694.364 629.847 694.364 631.25C694.364 632.654 693.226 633.792 691.82 633.792C690.415 633.792 689.275 632.654 689.275 631.25Z" fill="white"/>
<path d="M359.788 529.088C359.788 527.684 360.928 526.546 362.333 526.546C363.738 526.546 364.876 527.684 364.876 529.088C364.876 530.492 363.738 531.63 362.333 531.63C360.928 531.63 359.788 530.492 359.788 529.088Z" fill="white"/>
<path d="M484.766 6.92829C484.766 5.52473 485.905 4.38623 487.311 4.38623C488.716 4.38623 489.854 5.52473 489.854 6.92829C489.854 8.33184 488.716 9.47034 487.311 9.47034C485.905 9.47034 484.766 8.33184 484.766 6.92829Z" fill="white"/>
<path d="M1450.66 22.4112C1450.66 21.0076 1451.8 19.8691 1453.21 19.8691C1454.61 19.8691 1455.75 21.0076 1455.75 22.4112C1455.75 23.8148 1454.61 24.9532 1453.21 24.9532C1451.8 24.9532 1450.66 23.8148 1450.66 22.4112Z" fill="white"/>
<path d="M1177.98 306.19C1177.98 304.787 1179.12 303.648 1180.52 303.648C1181.93 303.648 1183.07 304.787 1183.07 306.19C1183.07 307.594 1181.93 308.733 1180.52 308.733C1179.12 308.733 1177.98 307.594 1177.98 306.19Z" fill="white"/>
<path d="M700.794 446.194C700.794 444.791 701.934 443.652 703.339 443.652C704.744 443.652 705.882 444.791 705.882 446.194C705.882 447.598 704.744 448.736 703.339 448.736C701.934 448.736 700.794 447.598 700.794 446.194Z" fill="white"/>
<path d="M11.5166 48.8975C11.5166 47.494 12.6564 46.3555 14.0617 46.3555C15.4669 46.3555 16.6049 47.494 16.6049 48.8975C16.6049 50.3011 15.4669 51.4396 14.0617 51.4396C12.6564 51.4396 11.5166 50.3011 11.5166 48.8975Z" fill="white"/>
<path d="M1212.07 45.1153C1212.07 43.7117 1213.21 42.5732 1214.61 42.5732C1216.02 42.5732 1217.15 43.7117 1217.15 45.1153C1217.15 46.5189 1216.02 47.6574 1214.61 47.6574C1213.21 47.6574 1212.07 46.5189 1212.07 45.1153Z" fill="white"/>
<path d="M776.535 370.518C776.535 369.114 777.675 367.976 779.08 367.976C780.485 367.976 781.623 369.114 781.623 370.518C781.623 371.921 780.485 373.06 779.08 373.06C777.675 373.06 776.535 371.921 776.535 370.518Z" fill="white"/>
<path d="M526.579 139.707C526.579 138.303 527.719 137.165 529.124 137.165C530.529 137.165 531.667 138.303 531.667 139.707C531.667 141.11 530.529 142.249 529.124 142.249C527.719 142.249 526.579 141.11 526.579 139.707Z" fill="white"/>
<path d="M1026.49 253.219C1026.49 251.815 1027.63 250.677 1029.03 250.677C1030.44 250.677 1031.58 251.815 1031.58 253.219C1031.58 254.622 1030.44 255.761 1029.03 255.761C1027.63 255.761 1026.49 254.622 1026.49 253.219Z" fill="white"/>
<path d="M893.941 608.895C893.941 607.491 895.081 606.353 896.486 606.353C897.892 606.353 899.03 607.491 899.03 608.895C899.03 610.298 897.892 611.437 896.486 611.437C895.081 611.437 893.941 610.298 893.941 608.895Z" fill="white"/>
<path d="M629.779 630.285C629.779 628.882 630.919 627.743 632.324 627.743C633.73 627.743 634.868 628.882 634.868 630.285C634.868 631.689 633.73 632.827 632.324 632.827C630.919 632.827 629.779 631.689 629.779 630.285Z" fill="white" fill-opacity="0.4"/>
<path d="M341.132 525.419C341.132 524.015 342.272 522.877 343.677 522.877C345.082 522.877 346.22 524.015 346.22 525.419C346.22 526.823 345.082 527.961 343.677 527.961C342.272 527.961 341.132 526.823 341.132 525.419Z" fill="white" fill-opacity="0.4"/>
<path d="M997.148 443.021C997.148 441.617 998.288 440.479 999.693 440.479C1001.1 440.479 1002.24 441.617 1002.24 443.021C1002.24 444.424 1001.1 445.563 999.693 445.563C998.288 445.563 997.148 444.424 997.148 443.021Z" fill="white" fill-opacity="0.4"/>
<path d="M532.313 356.882C532.313 355.478 533.453 354.34 534.859 354.34C536.264 354.34 537.402 355.478 537.402 356.882C537.402 358.285 536.264 359.424 534.859 359.424C533.453 359.424 532.313 358.285 532.313 356.882Z" fill="white" fill-opacity="0.4"/>
<path d="M277.403 600.323C277.403 598.92 278.543 597.781 279.948 597.781C281.354 597.781 282.492 598.92 282.492 600.323C282.492 601.727 281.354 602.865 279.948 602.865C278.543 602.865 277.403 601.727 277.403 600.323Z" fill="white" fill-opacity="0.4"/>
<path d="M839.707 495.459C839.707 494.055 840.847 492.917 842.252 492.917C843.657 492.917 844.795 494.055 844.795 495.459C844.795 496.863 843.657 498.001 842.252 498.001C840.847 498.001 839.707 496.863 839.707 495.459Z" fill="white" fill-opacity="0.4"/>
<path d="M757.235 319.43C757.235 318.026 758.375 316.888 759.78 316.888C761.186 316.888 762.324 318.026 762.324 319.43C762.324 320.833 761.186 321.972 759.78 321.972C758.375 321.972 757.235 320.833 757.235 319.43Z" fill="white" fill-opacity="0.4"/>
<path d="M1450.74 353.134C1450.74 351.73 1451.88 350.592 1453.28 350.592C1454.69 350.592 1455.83 351.73 1455.83 353.134C1455.83 354.537 1454.69 355.676 1453.28 355.676C1451.88 355.676 1450.74 354.537 1450.74 353.134Z" fill="white" fill-opacity="0.4"/>
<path d="M1180.83 634.028C1180.83 632.625 1181.97 631.486 1183.38 631.486C1184.79 631.486 1185.92 632.625 1185.92 634.028C1185.92 635.432 1184.79 636.57 1183.38 636.57C1181.97 636.57 1180.83 635.432 1180.83 634.028Z" fill="white" fill-opacity="0.4"/>
<path d="M26.2397 379.353C26.2397 377.949 27.3796 376.811 28.7848 376.811C30.19 376.811 31.3281 377.949 31.3281 379.353C31.3281 380.756 30.19 381.895 28.7848 381.895C27.3796 381.895 26.2397 380.756 26.2397 379.353Z" fill="white" fill-opacity="0.4"/>
<path d="M299.897 315.684C299.897 314.28 301.037 313.142 302.443 313.142C303.848 313.142 304.986 314.28 304.986 315.684C304.986 317.087 303.848 318.226 302.443 318.226C301.037 318.226 299.897 317.087 299.897 315.684Z" fill="white" fill-opacity="0.4"/>
<path d="M0.00146484 649.012C0.00146484 647.608 1.1413 646.47 2.54651 646.47C3.95172 646.47 5.08978 647.608 5.08978 649.012C5.08978 650.415 3.95172 651.554 2.54651 651.554C1.1413 651.554 0.00146484 650.415 0.00146484 649.012Z" fill="white" fill-opacity="0.4"/>
<path d="M1214.57 375.608C1214.57 374.205 1215.71 373.066 1217.12 373.066C1218.52 373.066 1219.66 374.205 1219.66 375.608C1219.66 377.012 1218.52 378.151 1217.12 378.151C1215.71 378.151 1214.57 377.012 1214.57 375.608Z" fill="white" fill-opacity="0.4"/>
<path d="M1060.88 311.94C1060.88 310.536 1062.02 309.397 1063.42 309.397C1064.83 309.397 1065.97 310.536 1065.97 311.94C1065.97 313.343 1064.83 314.482 1063.42 314.482C1062.02 314.482 1060.88 313.343 1060.88 311.94Z" fill="white" fill-opacity="0.4"/>
<path d="M536.057 469.24C536.057 467.837 537.196 466.698 538.602 466.698C540.007 466.698 541.145 467.837 541.145 469.24C541.145 470.644 540.007 471.782 538.602 471.782C537.196 471.782 536.057 470.644 536.057 469.24Z" fill="white" fill-opacity="0.4"/>
<path d="M637.278 308.194C637.278 306.791 638.418 305.652 639.823 305.652C641.229 305.652 642.367 306.791 642.367 308.194C642.367 309.598 641.229 310.736 639.823 310.736C638.418 310.736 637.278 309.598 637.278 308.194Z" fill="white" fill-opacity="0.4"/>
<path d="M1030.89 581.599C1030.89 580.195 1032.03 579.057 1033.43 579.057C1034.84 579.057 1035.98 580.195 1035.98 581.599C1035.98 583.002 1034.84 584.141 1033.43 584.141C1032.03 584.141 1030.89 583.002 1030.89 581.599Z" fill="white" fill-opacity="0.4"/>
<path d="M1627.14 345.584C1627.14 344.181 1628.28 343.044 1629.68 343.044C1631.09 343.044 1632.23 344.181 1632.23 345.584C1632.23 346.99 1631.09 348.126 1629.68 348.126C1628.28 348.126 1627.14 346.99 1627.14 345.584Z" fill="white" fill-opacity="0.7"/>
<path d="M1338.49 240.72C1338.49 239.315 1339.63 238.178 1341.03 238.178C1342.44 238.178 1343.58 239.315 1343.58 240.72C1343.58 242.124 1342.44 243.262 1341.03 243.262C1339.63 243.262 1338.49 242.124 1338.49 240.72Z" fill="white" fill-opacity="0.7"/>
<path d="M1529.67 72.1827C1529.67 70.7773 1530.81 69.6406 1532.22 69.6406C1533.62 69.6406 1534.76 70.7773 1534.76 72.1827C1534.76 73.5862 1533.62 74.7247 1532.22 74.7247C1530.81 74.7247 1529.67 73.5862 1529.67 72.1827Z" fill="white" fill-opacity="0.7"/>
<path d="M1495.94 618.988C1495.94 617.585 1497.08 616.446 1498.48 616.446C1499.89 616.446 1501.03 617.585 1501.03 618.988C1501.03 620.394 1499.89 621.53 1498.48 621.53C1497.08 621.53 1495.94 620.394 1495.94 618.988Z" fill="white" fill-opacity="0.7"/>
<path d="M1274.76 315.622C1274.76 314.219 1275.9 313.082 1277.31 313.082C1278.71 313.082 1279.85 314.219 1279.85 315.622C1279.85 317.028 1278.71 318.164 1277.31 318.164C1275.9 318.164 1274.76 317.028 1274.76 315.622Z" fill="white" fill-opacity="0.7"/>
<path d="M1630.89 551.578C1630.89 550.173 1632.03 549.036 1633.43 549.036C1634.84 549.036 1635.98 550.173 1635.98 551.578C1635.98 552.982 1634.84 554.12 1633.43 554.12C1632.03 554.12 1630.89 552.982 1630.89 551.578Z" fill="white" fill-opacity="0.7"/>
<path d="M1754.59 34.7283C1754.59 33.3247 1755.73 32.188 1757.14 32.188C1758.54 32.188 1759.68 33.3247 1759.68 34.7283C1759.68 36.1336 1758.54 37.2703 1757.14 37.2703C1755.73 37.2703 1754.59 36.1336 1754.59 34.7283Z" fill="white" fill-opacity="0.7"/>
<path d="M1705.87 487.905C1705.87 486.502 1707 485.363 1708.41 485.363C1709.81 485.363 1710.95 486.502 1710.95 487.905C1710.95 489.311 1709.81 490.447 1708.41 490.447C1707 490.447 1705.87 489.311 1705.87 487.905Z" fill="white" fill-opacity="0.7"/>
<path d="M1023.6 94.6521C1023.6 93.2485 1024.74 92.1118 1026.14 92.1118C1027.55 92.1118 1028.69 93.2485 1028.69 94.6521C1028.69 96.0574 1027.55 97.1941 1026.14 97.1941C1024.74 97.1941 1023.6 96.0574 1023.6 94.6521Z" fill="white" fill-opacity="0.7"/>
<path d="M1297.26 30.9854C1297.26 29.5801 1298.4 28.4434 1299.8 28.4434C1301.21 28.4434 1302.35 29.5801 1302.35 30.9854C1302.35 32.389 1301.21 33.5275 1299.8 33.5275C1298.4 33.5275 1297.26 32.389 1297.26 30.9854Z" fill="white" fill-opacity="0.7"/>
<path d="M997.36 364.313C997.36 362.907 998.5 361.771 999.905 361.771C1001.31 361.771 1002.45 362.907 1002.45 364.313C1002.45 365.716 1001.31 366.853 999.905 366.853C998.5 366.853 997.36 365.716 997.36 364.313Z" fill="white" fill-opacity="0.7"/>
<path d="M1780.83 413.001C1780.83 411.596 1781.97 410.459 1783.38 410.459C1784.78 410.459 1785.92 411.596 1785.92 413.001C1785.92 414.405 1784.78 415.543 1783.38 415.543C1781.97 415.543 1780.83 414.405 1780.83 413.001Z" fill="white" fill-opacity="0.7"/>
<path d="M1533.42 184.539C1533.42 183.136 1534.56 181.999 1535.97 181.999C1537.37 181.999 1538.51 183.136 1538.51 184.539C1538.51 185.945 1537.37 187.081 1535.97 187.081C1534.56 187.081 1533.42 185.945 1533.42 184.539Z" fill="white" fill-opacity="0.7"/>
<path d="M1634.64 23.4942C1634.64 22.0889 1635.78 20.9521 1637.18 20.9521C1638.59 20.9521 1639.73 22.0889 1639.73 23.4942C1639.73 24.8978 1638.59 26.0345 1637.18 26.0345C1635.78 26.0345 1634.64 24.8978 1634.64 23.4942Z" fill="white" fill-opacity="0.7"/>
</g>
</g>
</g>
<g opacity="0.0674944">
<rect width="163.269" height="2.33799" rx="1.16899" transform="matrix(0.769291 0.638898 -0.204237 0.978921 617.079 334.902)" fill="url(#paint1_linear_40000053_3)"/>
<g filter="url(#filter0_d_40000053_3)">
<rect width="2.46695" height="2.16152" rx="1.08076" transform="matrix(0.769291 0.638898 -0.204237 0.978921 740.827 437.683)" fill="white" fill-opacity="0.2" shape-rendering="crispEdges"/>
</g>
</g>
<g opacity="0.01">
<rect width="105.063" height="3.22377" rx="1.61188" transform="matrix(0.652166 0.758076 -0.147436 0.989072 868.534 474.464)" fill="url(#paint2_linear_40000053_3)"/>
<g filter="url(#filter1_d_40000053_3)">
<rect width="1.48607" height="3.08623" rx="0.743036" transform="matrix(0.652166 0.758076 -0.147436 0.989072 935.868 552.733)" fill="white" fill-opacity="0.2" shape-rendering="crispEdges"/>
</g>
</g>
<g opacity="0.02204">
<rect width="195.447" height="2.89836" rx="1.44918" transform="matrix(0.800771 0.598971 -0.225675 0.974203 729.331 512.842)" fill="url(#paint3_linear_40000053_3)"/>
<g filter="url(#filter2_d_40000053_3)">
<rect width="3.39266" height="2.62675" rx="1.23681" transform="matrix(0.800771 0.598971 -0.225675 0.974203 883.101 627.859)" fill="white" fill-opacity="0.2" shape-rendering="crispEdges"/>
</g>
</g>
<g opacity="0.01">
<rect width="174.967" height="2.66285" rx="1.33142" transform="matrix(0.782575 0.622556 -0.212819 0.977092 805.803 569.562)" fill="url(#paint4_linear_40000053_3)"/>
<g filter="url(#filter3_d_40000053_3)">
<rect width="2.97214" height="2.86173" rx="1.23681" transform="matrix(0.782575 0.622556 -0.212819 0.977092 940.168 676.452)" fill="white" fill-opacity="0.2" shape-rendering="crispEdges"/>
</g>
</g>
<g opacity="0.0438506">
<rect width="141.371" height="2.54739" rx="1.27369" transform="matrix(0.738739 0.673992 -0.186583 0.982439 685.115 906.789)" fill="url(#paint5_linear_40000053_3)"/>
</g>
<g opacity="0.0603289">
<rect width="123.396" height="2.81074" rx="1.40537" transform="matrix(0.703611 0.710585 -0.169101 0.985599 665.636 266.136)" fill="url(#paint6_linear_40000053_3)"/>
<g filter="url(#filter4_d_40000053_3)">
<rect width="1.88567" height="2.62388" rx="0.942836" transform="matrix(0.703611 0.710585 -0.169101 0.985599 751.298 352.655)" fill="white" fill-opacity="0.2" shape-rendering="crispEdges"/>
</g>
</g>
<g opacity="0.130861">
<rect width="158.056" height="2.49672" rx="1.24836" transform="matrix(0.763159 0.646211 -0.200476 0.979699 533.311 164.434)" fill="url(#paint7_linear_40000053_3)"/>
<g filter="url(#filter5_d_40000053_3)">
<rect width="2.61156" height="2.23858" rx="1.11929" transform="matrix(0.763159 0.646211 -0.200476 0.979699 651.848 264.799)" fill="white" fill-opacity="0.2" shape-rendering="crispEdges"/>
</g>
</g>
<g opacity="0.01">
<rect width="128.055" height="2.73252" rx="1.36626" transform="matrix(0.713869 0.70028 -0.173942 0.984756 1039.67 332.292)" fill="url(#paint8_linear_40000053_3)"/>
<g filter="url(#filter6_d_40000053_3)">
<rect width="1.9846" height="2.62388" rx="0.9923" transform="matrix(0.713869 0.70028 -0.173942 0.984756 1129.73 420.642)" fill="white" fill-opacity="0.2" shape-rendering="crispEdges"/>
</g>
</g>
<g opacity="0.0139401">
<rect width="173.959" height="2.67121" rx="1.33561" transform="matrix(0.781575 0.623812 -0.212152 0.977237 802.711 305.454)" fill="url(#paint9_linear_40000053_3)"/>
<g filter="url(#filter7_d_40000053_3)">
<rect width="2.94931" height="2.86173" rx="1.23681" transform="matrix(0.781575 0.623812 -0.212152 0.977237 936.108 411.918)" fill="white" fill-opacity="0.2" shape-rendering="crispEdges"/>
</g>
</g>
<g opacity="0.079946">
<rect width="151.422" height="2.43605" rx="1.21802" transform="matrix(0.754068 0.656796 -0.195111 0.980781 959.972 234.028)" fill="url(#paint10_linear_40000053_3)"/>
<g filter="url(#filter8_d_40000053_3)">
<rect width="2.46695" height="2.16152" rx="1.08076" transform="matrix(0.754068 0.656796 -0.195111 0.980781 1072.29 331.857)" fill="white" fill-opacity="0.2" shape-rendering="crispEdges"/>
</g>
</g>
<g opacity="0.0294704">
<rect width="130.265" height="2.69814" rx="1.34907" transform="matrix(0.718425 0.695605 -0.176158 0.984362 1243.85 293.68)" fill="url(#paint11_linear_40000053_3)"/>
<g filter="url(#filter9_d_40000053_3)">
<rect width="2.0236" height="2.62388" rx="1.0118" transform="matrix(0.718425 0.695605 -0.176158 0.984362 1336.16 383.036)" fill="white" fill-opacity="0.2" shape-rendering="crispEdges"/>
</g>
</g>
<g opacity="0.2657">
<rect width="146.03" height="2.49325" rx="1.24663" transform="matrix(0.74616 0.665766 -0.190634 0.981661 266.298 -26.1211)" fill="url(#paint12_linear_40000053_3)"/>
<g filter="url(#filter10_d_40000053_3)">
<rect width="2.35659" height="2.16152" rx="1.08076" transform="matrix(0.74616 0.665766 -0.190634 0.981661 373.648 69.6636)" fill="white" fill-opacity="0.2" shape-rendering="crispEdges"/>
</g>
</g>
<g opacity="0.05102">
<rect width="141.65" height="2.54401" rx="1.27201" transform="matrix(0.7392 0.673486 -0.18683 0.982392 983.495 262.437)" fill="url(#paint13_linear_40000053_3)"/>
<g filter="url(#filter11_d_40000053_3)">
<rect width="2.26717" height="2.62388" rx="1.13358" transform="matrix(0.7392 0.673486 -0.18683 0.982392 1086.51 356.283)" fill="white" fill-opacity="0.2" shape-rendering="crispEdges"/>
</g>
</g>
<g opacity="0.269626">
<rect width="149.03" height="2.46074" rx="1.23037" transform="matrix(0.750645 0.660706 -0.193152 0.981169 -19.8638 573.42)" fill="url(#paint14_linear_40000053_3)"/>
<g filter="url(#filter12_d_40000053_3)">
<rect width="2.42319" height="2.16152" rx="1.08076" transform="matrix(0.750645 0.660706 -0.193152 0.981169 90.1006 670.212)" fill="white" fill-opacity="0.2" shape-rendering="crispEdges"/>
</g>
</g>
<g opacity="0.02204">
<rect width="173.311" height="2.67667" rx="1.33833" transform="matrix(0.780926 0.624624 -0.211719 0.977331 739.87 356.57)" fill="url(#paint15_linear_40000053_3)"/>
<g filter="url(#filter13_d_40000053_3)">
<rect width="2.93313" height="2.85032" rx="1.23681" transform="matrix(0.780926 0.624624 -0.211719 0.977331 873.007 463.061)" fill="white" fill-opacity="0.2" shape-rendering="crispEdges"/>
</g>
</g>
<g opacity="0.0863179">
<rect width="118.177" height="2.9091" rx="1.45455" transform="matrix(0.690939 0.722913 -0.163383 0.986563 881.47 232.421)" fill="url(#paint16_linear_40000053_3)"/>
<g filter="url(#filter14_d_40000053_3)">
<rect width="1.76863" height="2.62388" rx="0.884316" transform="matrix(0.690939 0.722913 -0.163383 0.986563 962.123 316.803)" fill="white" fill-opacity="0.2" shape-rendering="crispEdges"/>
</g>
</g>
<g opacity="0.0663364">
<rect width="124.086" height="2.79864" rx="1.39932" transform="matrix(0.705189 0.70902 -0.169832 0.985473 942.818 257.949)" fill="url(#paint17_linear_40000053_3)"/>
<g filter="url(#filter15_d_40000053_3)">
<rect width="1.90183" height="2.62388" rx="0.950914" transform="matrix(0.705189 0.70902 -0.169832 0.985473 1028.86 344.457)" fill="white" fill-opacity="0.2" shape-rendering="crispEdges"/>
</g>
</g>
</g>
<defs>
<filter id="filter0_d_40000053_3" x="731.728" y="429.025" width="19.6541" height="21.0077" filterUnits="userSpaceOnUse" color-interpolation-filters="sRGB">
<feFlood flood-opacity="0" result="BackgroundImageFix"/>
<feColorMatrix in="SourceAlpha" type="matrix" values="0 0 0 0 0 0 0 0 0 0 0 0 0 0 0 0 0 0 127 0" result="hardAlpha"/>
<feMorphology radius="1.23681" operator="dilate" in="SourceAlpha" result="effect1_dropShadow_40000053_3"/>
<feOffset/>
<feGaussianBlur stdDeviation="3.71042"/>
<feComposite in2="hardAlpha" operator="out"/>
<feColorMatrix type="matrix" values="0 0 0 0 1 0 0 0 0 1 0 0 0 0 1 0 0 0 0.6 0"/>
<feBlend mode="normal" in2="BackgroundImageFix" result="effect1_dropShadow_40000053_3"/>
<feBlend mode="normal" in="SourceGraphic" in2="effect1_dropShadow_40000053_3" result="shape"/>
</filter>
<filter id="filter1_d_40000053_3" x="926.755" y="544.076" width="18.7391" height="21.494" filterUnits="userSpaceOnUse" color-interpolation-filters="sRGB">
<feFlood flood-opacity="0" result="BackgroundImageFix"/>
<feColorMatrix in="SourceAlpha" type="matrix" values="0 0 0 0 0 0 0 0 0 0 0 0 0 0 0 0 0 0 127 0" result="hardAlpha"/>
<feMorphology radius="1.23681" operator="dilate" in="SourceAlpha" result="effect1_dropShadow_40000053_3"/>
<feOffset/>
<feGaussianBlur stdDeviation="3.71042"/>
<feComposite in2="hardAlpha" operator="out"/>
<feColorMatrix type="matrix" values="0 0 0 0 1 0 0 0 0 1 0 0 0 0 1 0 0 0 0.6 0"/>
<feBlend mode="normal" in2="BackgroundImageFix" result="effect1_dropShadow_40000053_3"/>
<feBlend mode="normal" in="SourceGraphic" in2="effect1_dropShadow_40000053_3" result="shape"/>
</filter>
<filter id="filter2_d_40000053_3" x="873.85" y="619.202" width="20.6248" height="21.9061" filterUnits="userSpaceOnUse" color-interpolation-filters="sRGB">
<feFlood flood-opacity="0" result="BackgroundImageFix"/>
<feColorMatrix in="SourceAlpha" type="matrix" values="0 0 0 0 0 0 0 0 0 0 0 0 0 0 0 0 0 0 127 0" result="hardAlpha"/>
<feMorphology radius="1.23681" operator="dilate" in="SourceAlpha" result="effect1_dropShadow_40000053_3"/>
<feOffset/>
<feGaussianBlur stdDeviation="3.71042"/>
<feComposite in2="hardAlpha" operator="out"/>
<feColorMatrix type="matrix" values="0 0 0 0 1 0 0 0 0 1 0 0 0 0 1 0 0 0 0.6 0"/>
<feBlend mode="normal" in2="BackgroundImageFix" result="effect1_dropShadow_40000053_3"/>
<feBlend mode="normal" in="SourceGraphic" in2="effect1_dropShadow_40000053_3" result="shape"/>
</filter>
<filter id="filter3_d_40000053_3" x="930.901" y="667.795" width="20.2508" height="21.9618" filterUnits="userSpaceOnUse" color-interpolation-filters="sRGB">
<feFlood flood-opacity="0" result="BackgroundImageFix"/>
<feColorMatrix in="SourceAlpha" type="matrix" values="0 0 0 0 0 0 0 0 0 0 0 0 0 0 0 0 0 0 127 0" result="hardAlpha"/>
<feMorphology radius="1.23681" operator="dilate" in="SourceAlpha" result="effect1_dropShadow_40000053_3"/>
<feOffset/>
<feGaussianBlur stdDeviation="3.71042"/>
<feComposite in2="hardAlpha" operator="out"/>
<feColorMatrix type="matrix" values="0 0 0 0 1 0 0 0 0 1 0 0 0 0 1 0 0 0 0.6 0"/>
<feBlend mode="normal" in2="BackgroundImageFix" result="effect1_dropShadow_40000053_3"/>
<feBlend mode="normal" in="SourceGraphic" in2="effect1_dropShadow_40000053_3" result="shape"/>
</filter>
<filter id="filter4_d_40000053_3" x="742.197" y="343.998" width="19.0858" height="21.2411" filterUnits="userSpaceOnUse" color-interpolation-filters="sRGB">
<feFlood flood-opacity="0" result="BackgroundImageFix"/>
<feColorMatrix in="SourceAlpha" type="matrix" values="0 0 0 0 0 0 0 0 0 0 0 0 0 0 0 0 0 0 127 0" result="hardAlpha"/>
<feMorphology radius="1.23681" operator="dilate" in="SourceAlpha" result="effect1_dropShadow_40000053_3"/>
<feOffset/>
<feGaussianBlur stdDeviation="3.71042"/>
<feComposite in2="hardAlpha" operator="out"/>
<feColorMatrix type="matrix" values="0 0 0 0 1 0 0 0 0 1 0 0 0 0 1 0 0 0 0.6 0"/>
<feBlend mode="normal" in2="BackgroundImageFix" result="effect1_dropShadow_40000053_3"/>
<feBlend mode="normal" in="SourceGraphic" in2="effect1_dropShadow_40000053_3" result="shape"/>
</filter>
<filter id="filter5_d_40000053_3" x="642.741" y="256.141" width="19.7577" height="21.1961" filterUnits="userSpaceOnUse" color-interpolation-filters="sRGB">
<feFlood flood-opacity="0" result="BackgroundImageFix"/>
<feColorMatrix in="SourceAlpha" type="matrix" values="0 0 0 0 0 0 0 0 0 0 0 0 0 0 0 0 0 0 127 0" result="hardAlpha"/>
<feMorphology radius="1.23681" operator="dilate" in="SourceAlpha" result="effect1_dropShadow_40000053_3"/>
<feOffset/>
<feGaussianBlur stdDeviation="3.71042"/>
<feComposite in2="hardAlpha" operator="out"/>
<feColorMatrix type="matrix" values="0 0 0 0 1 0 0 0 0 1 0 0 0 0 1 0 0 0 0.6 0"/>
<feBlend mode="normal" in2="BackgroundImageFix" result="effect1_dropShadow_40000053_3"/>
<feBlend mode="normal" in="SourceGraphic" in2="effect1_dropShadow_40000053_3" result="shape"/>
</filter>
<filter id="filter6_d_40000053_3" x="1120.62" y="411.984" width="19.1883" height="21.2889" filterUnits="userSpaceOnUse" color-interpolation-filters="sRGB">
<feFlood flood-opacity="0" result="BackgroundImageFix"/>
<feColorMatrix in="SourceAlpha" type="matrix" values="0 0 0 0 0 0 0 0 0 0 0 0 0 0 0 0 0 0 127 0" result="hardAlpha"/>
<feMorphology radius="1.23681" operator="dilate" in="SourceAlpha" result="effect1_dropShadow_40000053_3"/>
<feOffset/>
<feGaussianBlur stdDeviation="3.71042"/>
<feComposite in2="hardAlpha" operator="out"/>
<feColorMatrix type="matrix" values="0 0 0 0 1 0 0 0 0 1 0 0 0 0 1 0 0 0 0.6 0"/>
<feBlend mode="normal" in2="BackgroundImageFix" result="effect1_dropShadow_40000053_3"/>
<feBlend mode="normal" in="SourceGraphic" in2="effect1_dropShadow_40000053_3" result="shape"/>
</filter>
<filter id="filter7_d_40000053_3" x="926.843" y="403.26" width="20.2274" height="21.952" filterUnits="userSpaceOnUse" color-interpolation-filters="sRGB">
<feFlood flood-opacity="0" result="BackgroundImageFix"/>
<feColorMatrix in="SourceAlpha" type="matrix" values="0 0 0 0 0 0 0 0 0 0 0 0 0 0 0 0 0 0 127 0" result="hardAlpha"/>
<feMorphology radius="1.23681" operator="dilate" in="SourceAlpha" result="effect1_dropShadow_40000053_3"/>
<feOffset/>
<feGaussianBlur stdDeviation="3.71042"/>
<feComposite in2="hardAlpha" operator="out"/>
<feColorMatrix type="matrix" values="0 0 0 0 1 0 0 0 0 1 0 0 0 0 1 0 0 0 0.6 0"/>
<feBlend mode="normal" in2="BackgroundImageFix" result="effect1_dropShadow_40000053_3"/>
<feBlend mode="normal" in="SourceGraphic" in2="effect1_dropShadow_40000053_3" result="shape"/>
</filter>
<filter id="filter8_d_40000053_3" x="1063.21" y="323.2" width="19.5975" height="21.0555" filterUnits="userSpaceOnUse" color-interpolation-filters="sRGB">
<feFlood flood-opacity="0" result="BackgroundImageFix"/>
<feColorMatrix in="SourceAlpha" type="matrix" values="0 0 0 0 0 0 0 0 0 0 0 0 0 0 0 0 0 0 127 0" result="hardAlpha"/>
<feMorphology radius="1.23681" operator="dilate" in="SourceAlpha" result="effect1_dropShadow_40000053_3"/>
<feOffset/>
<feGaussianBlur stdDeviation="3.71042"/>
<feComposite in2="hardAlpha" operator="out"/>
<feColorMatrix type="matrix" values="0 0 0 0 1 0 0 0 0 1 0 0 0 0 1 0 0 0 0.6 0"/>
<feBlend mode="normal" in2="BackgroundImageFix" result="effect1_dropShadow_40000053_3"/>
<feBlend mode="normal" in="SourceGraphic" in2="effect1_dropShadow_40000053_3" result="shape"/>
</filter>
<filter id="filter9_d_40000053_3" x="1327.04" y="374.378" width="19.2313" height="21.3055" filterUnits="userSpaceOnUse" color-interpolation-filters="sRGB">
<feFlood flood-opacity="0" result="BackgroundImageFix"/>
<feColorMatrix in="SourceAlpha" type="matrix" values="0 0 0 0 0 0 0 0 0 0 0 0 0 0 0 0 0 0 127 0" result="hardAlpha"/>
<feMorphology radius="1.23681" operator="dilate" in="SourceAlpha" result="effect1_dropShadow_40000053_3"/>
<feOffset/>
<feGaussianBlur stdDeviation="3.71042"/>
<feComposite in2="hardAlpha" operator="out"/>
<feColorMatrix type="matrix" values="0 0 0 0 1 0 0 0 0 1 0 0 0 0 1 0 0 0 0.6 0"/>
<feBlend mode="normal" in2="BackgroundImageFix" result="effect1_dropShadow_40000053_3"/>
<feBlend mode="normal" in="SourceGraphic" in2="effect1_dropShadow_40000053_3" result="shape"/>
</filter>
<filter id="filter10_d_40000053_3" x="364.579" y="61.0059" width="19.4862" height="21.0062" filterUnits="userSpaceOnUse" color-interpolation-filters="sRGB">
<feFlood flood-opacity="0" result="BackgroundImageFix"/>
<feColorMatrix in="SourceAlpha" type="matrix" values="0 0 0 0 0 0 0 0 0 0 0 0 0 0 0 0 0 0 127 0" result="hardAlpha"/>
<feMorphology radius="1.23681" operator="dilate" in="SourceAlpha" result="effect1_dropShadow_40000053_3"/>
<feOffset/>
<feGaussianBlur stdDeviation="3.71042"/>
<feComposite in2="hardAlpha" operator="out"/>
<feColorMatrix type="matrix" values="0 0 0 0 1 0 0 0 0 1 0 0 0 0 1 0 0 0 0.6 0"/>
<feBlend mode="normal" in2="BackgroundImageFix" result="effect1_dropShadow_40000053_3"/>
<feBlend mode="normal" in="SourceGraphic" in2="effect1_dropShadow_40000053_3" result="shape"/>
</filter>
<filter id="filter11_d_40000053_3" x="1077.36" y="347.626" width="19.4813" height="21.4198" filterUnits="userSpaceOnUse" color-interpolation-filters="sRGB">
<feFlood flood-opacity="0" result="BackgroundImageFix"/>
<feColorMatrix in="SourceAlpha" type="matrix" values="0 0 0 0 0 0 0 0 0 0 0 0 0 0 0 0 0 0 127 0" result="hardAlpha"/>
<feMorphology radius="1.23681" operator="dilate" in="SourceAlpha" result="effect1_dropShadow_40000053_3"/>
<feOffset/>
<feGaussianBlur stdDeviation="3.71042"/>
<feComposite in2="hardAlpha" operator="out"/>
<feColorMatrix type="matrix" values="0 0 0 0 1 0 0 0 0 1 0 0 0 0 1 0 0 0 0.6 0"/>
<feBlend mode="normal" in2="BackgroundImageFix" result="effect1_dropShadow_40000053_3"/>
<feBlend mode="normal" in="SourceGraphic" in2="effect1_dropShadow_40000053_3" result="shape"/>
</filter>
<filter id="filter12_d_40000053_3" x="81.025" y="661.554" width="19.5526" height="21.037" filterUnits="userSpaceOnUse" color-interpolation-filters="sRGB">
<feFlood flood-opacity="0" result="BackgroundImageFix"/>
<feColorMatrix in="SourceAlpha" type="matrix" values="0 0 0 0 0 0 0 0 0 0 0 0 0 0 0 0 0 0 127 0" result="hardAlpha"/>
<feMorphology radius="1.23681" operator="dilate" in="SourceAlpha" result="effect1_dropShadow_40000053_3"/>
<feOffset/>
<feGaussianBlur stdDeviation="3.71042"/>
<feComposite in2="hardAlpha" operator="out"/>
<feColorMatrix type="matrix" values="0 0 0 0 1 0 0 0 0 1 0 0 0 0 1 0 0 0 0.6 0"/>
<feBlend mode="normal" in2="BackgroundImageFix" result="effect1_dropShadow_40000053_3"/>
<feBlend mode="normal" in="SourceGraphic" in2="effect1_dropShadow_40000053_3" result="shape"/>
</filter>
<filter id="filter13_d_40000053_3" x="863.746" y="454.403" width="20.2098" height="21.9334" filterUnits="userSpaceOnUse" color-interpolation-filters="sRGB">
<feFlood flood-opacity="0" result="BackgroundImageFix"/>
<feColorMatrix in="SourceAlpha" type="matrix" values="0 0 0 0 0 0 0 0 0 0 0 0 0 0 0 0 0 0 127 0" result="hardAlpha"/>
<feMorphology radius="1.23681" operator="dilate" in="SourceAlpha" result="effect1_dropShadow_40000053_3"/>
<feOffset/>
<feGaussianBlur stdDeviation="3.71042"/>
<feComposite in2="hardAlpha" operator="out"/>
<feColorMatrix type="matrix" values="0 0 0 0 1 0 0 0 0 1 0 0 0 0 1 0 0 0 0.6 0"/>
<feBlend mode="normal" in2="BackgroundImageFix" result="effect1_dropShadow_40000053_3"/>
<feBlend mode="normal" in="SourceGraphic" in2="effect1_dropShadow_40000053_3" result="shape"/>
</filter>
<filter id="filter14_d_40000053_3" x="953.037" y="308.145" width="18.9657" height="21.1825" filterUnits="userSpaceOnUse" color-interpolation-filters="sRGB">
<feFlood flood-opacity="0" result="BackgroundImageFix"/>
<feColorMatrix in="SourceAlpha" type="matrix" values="0 0 0 0 0 0 0 0 0 0 0 0 0 0 0 0 0 0 127 0" result="hardAlpha"/>
<feMorphology radius="1.23681" operator="dilate" in="SourceAlpha" result="effect1_dropShadow_40000053_3"/>
<feOffset/>
<feGaussianBlur stdDeviation="3.71042"/>
<feComposite in2="hardAlpha" operator="out"/>
<feColorMatrix type="matrix" values="0 0 0 0 1 0 0 0 0 1 0 0 0 0 1 0 0 0 0.6 0"/>
<feBlend mode="normal" in2="BackgroundImageFix" result="effect1_dropShadow_40000053_3"/>
<feBlend mode="normal" in="SourceGraphic" in2="effect1_dropShadow_40000053_3" result="shape"/>
</filter>
<filter id="filter15_d_40000053_3" x="1019.75" y="335.799" width="19.1014" height="21.2498" filterUnits="userSpaceOnUse" color-interpolation-filters="sRGB">
<feFlood flood-opacity="0" result="BackgroundImageFix"/>
<feColorMatrix in="SourceAlpha" type="matrix" values="0 0 0 0 0 0 0 0 0 0 0 0 0 0 0 0 0 0 127 0" result="hardAlpha"/>
<feMorphology radius="1.23681" operator="dilate" in="SourceAlpha" result="effect1_dropShadow_40000053_3"/>
<feOffset/>
<feGaussianBlur stdDeviation="3.71042"/>
<feComposite in2="hardAlpha" operator="out"/>
<feColorMatrix type="matrix" values="0 0 0 0 1 0 0 0 0 1 0 0 0 0 1 0 0 0 0.6 0"/>
<feBlend mode="normal" in2="BackgroundImageFix" result="effect1_dropShadow_40000053_3"/>
<feBlend mode="normal" in="SourceGraphic" in2="effect1_dropShadow_40000053_3" result="shape"/>
</filter>
<radialGradient id="paint0_radial_40000053_3" cx="0" cy="0" r="1" gradientUnits="userSpaceOnUse" gradientTransform="translate(1781 94.3671) scale(1636.74 784.191)">
<stop stop-color="#222224" stop-opacity="0.58"/>
<stop offset="1" stop-color="#080808" stop-opacity="0"/>
</radialGradient>
<linearGradient id="paint1_linear_40000053_3" x1="163.269" y1="1.16899" x2="0" y2="1.16899" gradientUnits="userSpaceOnUse">
<stop stop-color="white" stop-opacity="0.6"/>
<stop offset="1" stop-color="white" stop-opacity="0"/>
</linearGradient>
<linearGradient id="paint2_linear_40000053_3" x1="105.063" y1="1.61188" x2="0" y2="1.61188" gradientUnits="userSpaceOnUse">
<stop stop-color="white" stop-opacity="0.6"/>
<stop offset="1" stop-color="white" stop-opacity="0"/>
</linearGradient>
<linearGradient id="paint3_linear_40000053_3" x1="195.447" y1="1.44918" x2="0" y2="1.44918" gradientUnits="userSpaceOnUse">
<stop stop-color="white" stop-opacity="0.6"/>
<stop offset="1" stop-color="white" stop-opacity="0"/>
</linearGradient>
<linearGradient id="paint4_linear_40000053_3" x1="174.967" y1="1.33142" x2="0" y2="1.33142" gradientUnits="userSpaceOnUse">
<stop stop-color="white" stop-opacity="0.6"/>
<stop offset="1" stop-color="white" stop-opacity="0"/>
</linearGradient>
<linearGradient id="paint5_linear_40000053_3" x1="141.371" y1="1.27369" x2="0" y2="1.27369" gradientUnits="userSpaceOnUse">
<stop stop-color="white" stop-opacity="0.6"/>
<stop offset="1" stop-color="white" stop-opacity="0"/>
</linearGradient>
<linearGradient id="paint6_linear_40000053_3" x1="123.396" y1="1.40537" x2="0" y2="1.40537" gradientUnits="userSpaceOnUse">
<stop stop-color="white" stop-opacity="0.6"/>
<stop offset="1" stop-color="white" stop-opacity="0"/>
</linearGradient>
<linearGradient id="paint7_linear_40000053_3" x1="158.056" y1="1.24836" x2="0" y2="1.24836" gradientUnits="userSpaceOnUse">
<stop stop-color="white" stop-opacity="0.6"/>
<stop offset="1" stop-color="white" stop-opacity="0"/>
</linearGradient>
<linearGradient id="paint8_linear_40000053_3" x1="128.055" y1="1.36626" x2="0" y2="1.36626" gradientUnits="userSpaceOnUse">
<stop stop-color="white" stop-opacity="0.6"/>
<stop offset="1" stop-color="white" stop-opacity="0"/>
</linearGradient>
<linearGradient id="paint9_linear_40000053_3" x1="173.959" y1="1.33561" x2="0" y2="1.33561" gradientUnits="userSpaceOnUse">
<stop stop-color="white" stop-opacity="0.6"/>
<stop offset="1" stop-color="white" stop-opacity="0"/>
</linearGradient>
<linearGradient id="paint10_linear_40000053_3" x1="151.422" y1="1.21802" x2="0" y2="1.21802" gradientUnits="userSpaceOnUse">
<stop stop-color="white" stop-opacity="0.6"/>
<stop offset="1" stop-color="white" stop-opacity="0"/>
</linearGradient>
<linearGradient id="paint11_linear_40000053_3" x1="130.265" y1="1.34907" x2="0" y2="1.34907" gradientUnits="userSpaceOnUse">
<stop stop-color="white" stop-opacity="0.6"/>
<stop offset="1" stop-color="white" stop-opacity="0"/>
</linearGradient>
<linearGradient id="paint12_linear_40000053_3" x1="146.03" y1="1.24663" x2="0" y2="1.24663" gradientUnits="userSpaceOnUse">
<stop stop-color="white" stop-opacity="0.6"/>
<stop offset="1" stop-color="white" stop-opacity="0"/>
</linearGradient>
<linearGradient id="paint13_linear_40000053_3" x1="141.65" y1="1.27201" x2="0" y2="1.27201" gradientUnits="userSpaceOnUse">
<stop stop-color="white" stop-opacity="0.6"/>
<stop offset="1" stop-color="white" stop-opacity="0"/>
</linearGradient>
<linearGradient id="paint14_linear_40000053_3" x1="149.03" y1="1.23037" x2="0" y2="1.23037" gradientUnits="userSpaceOnUse">
<stop stop-color="white" stop-opacity="0.6"/>
<stop offset="1" stop-color="white" stop-opacity="0"/>
</linearGradient>
<linearGradient id="paint15_linear_40000053_3" x1="173.311" y1="1.33833" x2="0" y2="1.33833" gradientUnits="userSpaceOnUse">
<stop stop-color="white" stop-opacity="0.6"/>
<stop offset="1" stop-color="white" stop-opacity="0"/>
</linearGradient>
<linearGradient id="paint16_linear_40000053_3" x1="118.177" y1="1.45455" x2="0" y2="1.45455" gradientUnits="userSpaceOnUse">
<stop stop-color="white" stop-opacity="0.6"/>
<stop offset="1" stop-color="white" stop-opacity="0"/>
</linearGradient>
<linearGradient id="paint17_linear_40000053_3" x1="124.086" y1="1.39932" x2="0" y2="1.39932" gradientUnits="userSpaceOnUse">
<stop stop-color="white" stop-opacity="0.6"/>
<stop offset="1" stop-color="white" stop-opacity="0"/>
</linearGradient>
<clipPath id="clip0_40000053_3">
<rect width="1781" height="943.671" fill="white"/>
</clipPath>
<clipPath id="clip1_40000053_3">
<rect width="1781" height="671.585" fill="white"/>
</clipPath>
<clipPath id="clip2_40000053_3">
<rect width="1781" height="965.945" fill="white" transform="translate(0 -22.2627)"/>
</clipPath>
</defs>
</svg>
